<?xml version="1.0" encoding="UTF-8"?> <svg xmlns="http://www.w3.org/2000/svg" id="Ebene_1" data-name="Ebene 1" width="52.92mm" height="33.07mm" viewBox="0 0 150 93.75"><defs><style>.cls-1{fill:#e1251b;}.cls-2{fill:#007934;}.cls-3{fill:#80bc00;}.cls-4{fill:#3dae2b;}</style></defs><title>wff-logo-web-rgb-lay</title><path class="cls-1" d="M601.18,397.18c6.19,4.83,11.92,9.87,16.82,12.74-3,1.58-10.46,1.8-14.91-1.27-1.87-1.28-5-3.8-8.66-6.67Z" transform="translate(-520.28 -386.74)"></path><path class="cls-1" d="M587.39,396.71s-1.53-1.13-2.53-1.82c-6.7-4.6-10.9-6.06-14.64-5.88a12.87,12.87,0,0,0-1.38.11c4.12-3.75,15.66-3.25,25.11,2.81a54.68,54.68,0,0,0-6.56,4.78" transform="translate(-520.28 -386.74)"></path><path class="cls-2" d="M546.31,392.53c8.61,5.91,16.6,13.57,23.13,17.39-3,1.58-10.46,1.8-14.91-1.27-3.35-2.3-10.74-8.52-18.24-13.76" transform="translate(-520.28 -386.74)"></path><path class="cls-2" d="M536.29,394.89c-6.7-4.6-10.88-6.07-14.64-5.88-1,.06-1.37.11-1.37.11,4.27-3.89,16.44-3.19,26,3.41,8.61,5.91,16.6,13.57,23.13,17.39-3,1.58-10.46,1.8-14.91-1.27-3.35-2.3-10.7-8.57-18.24-13.76" transform="translate(-520.28 -386.74)"></path><path class="cls-3" d="M596.85,391.83l-2.3,1.4c-9.13,6.28-17.28,14.34-23.95,17.85-4.75,2.62-10.75,1.22-10.75,1.22s3.25,2.77,10,2.77c10.28-.18,20.31-9.33,33-18l.63-.46s1.4-1,2.41-1.7c6.7-4.6,10.9-6.06,14.64-5.88a12.79,12.79,0,0,1,1.37.11c-4.12-3.75-15.56-3.23-25,2.71" transform="translate(-520.28 -386.74)"></path><path class="cls-4" d="M645.3,391.83l-2.3,1.4c-9.13,6.28-17.28,14.34-24,17.85-4.75,2.62-10.74,1.22-10.74,1.22s3.25,2.77,10,2.77c10.29-.18,20.31-9.33,33-18l.63-.46s1.4-1,2.41-1.7c6.7-4.6,10.9-6.06,14.64-5.88a12.87,12.87,0,0,1,1.38.11c-4.13-3.75-15.57-3.23-25,2.71" transform="translate(-520.28 -386.74)"></path><path class="cls-2" d="M552.49,434l-2.43,6.66c-.09.23-.12.28-.3.29s-.55,0-.82,0-.42-.05-.51-.3l-3.38-10.25a.57.57,0,0,1-.06-.25c0-.18.17-.23.35-.23H547c.31,0,.38,0,.47.34l2.08,7.13,2.54-7.16c.09-.22.12-.31.32-.31h.69c.13,0,.15.06.25.36l2.58,7.11,2.1-7.16c.07-.25.16-.31.41-.31h1.23c.2,0,.37,0,.37.2a1.16,1.16,0,0,1-.06.28l-3.33,10.24c-.09.25-.15.31-.4.31h-.89c-.18,0-.23-.06-.32-.3Z" transform="translate(-520.28 -386.74)"></path><path class="cls-2" d="M565.76,436v3.63h4.29c.27,0,.41,0,.41.31v.91c0,.15-.11.2-.41.2h-6.3c-.31,0-.44,0-.44-.36V430.4c0-.34.11-.42.44-.44h6.3c.25,0,.43,0,.41.3V431c0,.31-.11.34-.41.34h-4.29v3.22h3.62c.27,0,.38,0,.38.3v.76c0,.28-.11.31-.4.31Z" transform="translate(-520.28 -386.74)"></path><path class="cls-2" d="M576.94,435.32a8.23,8.23,0,0,0,1.18,0,2.14,2.14,0,0,0,2.21-2.13c0-2.11-1.87-2.11-2.57-2.11a6.78,6.78,0,0,0-.82.05Zm-2.39-4.72c0-.35.06-.43.31-.51a15.28,15.28,0,0,1,3-.23,6.84,6.84,0,0,1,3.75.79,2.77,2.77,0,0,1,1.17,2.3c0,1.72-1.55,2.61-2.82,2.95l3.38,4.59a.57.57,0,0,1,.15.3c0,.22-.24.22-.36.22h-1.83c-.38,0-.42-.05-.6-.31l-2.72-4a.78.78,0,0,0-.65-.41c-.38,0-.38.27-.38.41v3.94c0,.28-.07.37-.41.37H575c-.25,0-.4,0-.4-.33Z" transform="translate(-520.28 -386.74)"></path><path class="cls-2" d="M595,437.25v-7c0-.23.07-.31.36-.31h1.14c.29,0,.36.06.36.31V440.7c0,.26-.11.31-.38.31h-1c-.22,0-.27-.08-.47-.33l-6.23-7.58v7.57c0,.25-.06.34-.36.34h-1.15c-.28,0-.39,0-.39-.31V430.31c0-.3.14-.33.39-.33h1.38a.56.56,0,0,1,.58.28Z" transform="translate(-520.28 -386.74)"></path><path class="cls-2" d="M606.27,434.65c1.14.52,2.93,1.31,2.93,3.39s-1.81,3.22-4.18,3.22c-2.94,0-4.15-1.66-4.15-2.56a1,1,0,0,1,1.07-1c.72,0,1,.49,1.28.91a2.17,2.17,0,0,0,2,1.27,1.54,1.54,0,0,0,1.7-1.47c0-1.11-.94-1.53-2.39-2.19l-1-.44c-.69-.33-2.47-1.15-2.47-3s1.63-3,3.88-3,3.82,1.19,3.82,2.08a.94.94,0,0,1-1,.9,1.22,1.22,0,0,1-1.11-.68,2.08,2.08,0,0,0-1.75-1.07,1.45,1.45,0,0,0-1.58,1.39c0,1,.92,1.43,2.15,1.94Z" transform="translate(-520.28 -386.74)"></path><path class="cls-2" d="M615.64,440.67c0,.29-.16.34-.4.34h-1.68c-.25,0-.4-.06-.4-.34V430.31c0-.22.05-.33.38-.33h1.72c.27,0,.38,0,.38.33Z" transform="translate(-520.28 -386.74)"></path><path class="cls-2" d="M628.39,437.25v-7c0-.23.07-.31.36-.31h1.14c.29,0,.36.06.36.31V440.7c0,.26-.11.31-.38.31h-1c-.22,0-.28-.08-.47-.33l-6.23-7.58v7.57c0,.25-.06.34-.37.34h-1.14c-.28,0-.39,0-.39-.31V430.31c0-.3.14-.33.39-.33H622a.56.56,0,0,1,.58.28Z" transform="translate(-520.28 -386.74)"></path><path class="cls-2" d="M642.12,436.51h-1.91c-.28,0-.37,0-.4-.19s0-.54,0-.81.16-.28.42-.28H644c.37,0,.4.11.4.39v3.53c0,.45,0,.61-.31.89a5.52,5.52,0,0,1-3.94,1.22c-4.62,0-6.07-3.05-6.07-5.77a5.55,5.55,0,0,1,5.9-5.78c3,0,4.44,1.55,4.44,2.38a1,1,0,0,1-1.07.92,1.38,1.38,0,0,1-1.19-.76A2.51,2.51,0,0,0,640,431c-1.79,0-3.23,1.39-3.23,4.22,0,2.59,1.22,4.59,3.61,4.59a2.86,2.86,0,0,0,1.34-.29c.4-.25.41-.57.41-1Z" transform="translate(-520.28 -386.74)"></path><path class="cls-3" d="M548.69,453.76v4.6c0,.28-.09.28-.32.28h-.94c-.26,0-.34,0-.34-.26v-9.61c0-.25.07-.32.29-.33H553c.23,0,.31,0,.31.2s0,.49,0,.55,0,.2-.3.19h-4.34v3.47h3.65c.23,0,.32,0,.32.25a3.2,3.2,0,0,1,0,.5c0,.15-.1.16-.3.16Z" transform="translate(-520.28 -386.74)"></path><path class="cls-3" d="M559.47,449.09a3.39,3.39,0,0,0-1.51.36,4.18,4.18,0,0,0-2,4,5.91,5.91,0,0,0,.17,1.51,3.5,3.5,0,0,0,3.37,2.92,3.35,3.35,0,0,0,2.7-1.39,5.17,5.17,0,0,0,.8-3.21c-.1-3.41-2.31-4.2-3.53-4.2m0,9.76a5.32,5.32,0,1,1,5.19-5.61,5.1,5.1,0,0,1-5.19,5.61" transform="translate(-520.28 -386.74)"></path><path class="cls-3" d="M571.91,449.09a3.35,3.35,0,0,0-1.5.36c-1.51.78-2,2.35-2,4a6.42,6.42,0,0,0,.16,1.51,3.5,3.5,0,0,0,3.37,2.92,3.37,3.37,0,0,0,2.71-1.39,5.31,5.31,0,0,0,.8-3.21c-.1-3.41-2.31-4.2-3.54-4.2m.05,9.76a5.32,5.32,0,0,1,0-10.63,5,5,0,0,1,5.17,5,5.13,5.13,0,0,1-5.19,5.61" transform="translate(-520.28 -386.74)"></path><path class="cls-3" d="M581.11,457.79a6.49,6.49,0,0,0,.86,0c3.48,0,5-1.73,5-4.31a4.12,4.12,0,0,0-1.15-3,5,5,0,0,0-3.71-1.26,6.86,6.86,0,0,0-1,.07ZM579.49,449c0-.3.07-.36.25-.4a12.08,12.08,0,0,1,2.6-.25c4.8,0,6.4,2.86,6.4,5.21a4.7,4.7,0,0,1-1.77,3.78,8,8,0,0,1-5,1.4,14.88,14.88,0,0,1-2.19-.15.29.29,0,0,1-.27-.33Z" transform="translate(-520.28 -386.74)"></path><path class="cls-3" d="M597,453.76v4.6c0,.28-.09.28-.32.28h-.94c-.26,0-.34,0-.34-.26v-9.61c0-.25.07-.32.29-.33h5.65c.23,0,.31,0,.31.2s0,.49,0,.55,0,.2-.3.19H597v3.47h3.66c.22,0,.31,0,.31.25a3.2,3.2,0,0,1,0,.5c0,.15-.1.16-.29.16Z" transform="translate(-520.28 -386.74)"></path><path class="cls-3" d="M607.63,453.8l-1.41-3.44-1.42,3.44Zm.34.83h-3.52l-1.59,3.78c-.09.23-.14.23-.36.23h-.77c-.11,0-.26,0-.26-.13s.08-.2.08-.23l4.24-9.61c.09-.19.13-.22.32-.22h.7c.11,0,.15,0,.23.19l4.25,9.64a.55.55,0,0,1,.07.23c0,.13-.1.13-.23.13H610c-.28,0-.31,0-.41-.22Z" transform="translate(-520.28 -386.74)"></path><path class="cls-3" d="M622.54,450.57l-3.61,7.79c-.15.31-.17.33-.35.33s-.23-.07-.36-.33l-3.67-7.79v7.81c0,.24-.09.26-.29.26h-.8c-.15,0-.17-.09-.17-.28v-9.63c0-.22.05-.28.3-.28h1.11c.25,0,.3,0,.39.28l3.64,7.48,3.47-7.47c.13-.26.15-.29.43-.29h1.12c.23,0,.33,0,.33.25v9.69c0,.22-.06.25-.33.25h-.91c-.26,0-.3,0-.3-.28Z" transform="translate(-520.28 -386.74)"></path><path class="cls-3" d="M629.06,458.35c0,.26-.08.29-.33.29h-1c-.19,0-.31,0-.31-.29v-9.61c0-.23.07-.3.31-.29h1c.23,0,.33,0,.33.26Z" transform="translate(-520.28 -386.74)"></path><path class="cls-3" d="M634.19,457.69h4.3c.25,0,.28.07.28.26v.56c0,.13-.15.13-.29.13h-5.64c-.24,0-.27-.09-.27-.25V448.7c0-.23.08-.25.27-.26h1c.25,0,.28.06.3.26Z" transform="translate(-520.28 -386.74)"></path><path class="cls-3" d="M642.87,454.05v4.36c0,.23-.1.23-.33.23h-1.06c-.22,0-.27-.06-.27-.23V454l-3.45-5.14c-.11-.17-.11-.19-.11-.24s.11-.15.24-.15h1.18c.23,0,.29,0,.39.2l2.82,4.25,2.8-4.22c.15-.2.16-.21.31-.23h.92c.18,0,.19.1.19.15s0,.11-.1.24Z" transform="translate(-520.28 -386.74)"></path><path class="cls-2" d="M547.32,473.16c0-.17,0-.33-.05-.46a3.06,3.06,0,0,0-.07-.37,2.49,2.49,0,0,0-.08-.32.67.67,0,0,1,.2-.12.9.9,0,0,1,.22-.1.79.79,0,0,1,.28,0,.34.34,0,0,1,.3.14.56.56,0,0,1,.1.35,3.1,3.1,0,0,1,0,.42c0,.15,0,.3,0,.46a8.26,8.26,0,0,0,.91-.1,2.67,2.67,0,0,0,.48-.13,1,1,0,0,1,.1.19.68.68,0,0,1,.05.23.33.33,0,0,1-.05.16.4.4,0,0,1-.21.12,1.85,1.85,0,0,1-.48.09c-.21,0-.51,0-.88,0-.05.33-.09.66-.13,1s-.05.66-.05,1a1.53,1.53,0,0,0,.06.47.64.64,0,0,0,.17.28.55.55,0,0,0,.25.13l.3,0a3.43,3.43,0,0,0,.84-.18c.22-.09.73.13.47.28a4.11,4.11,0,0,1-.82.39,2.76,2.76,0,0,1-.91.15,1.32,1.32,0,0,1-.86-.24,1.15,1.15,0,0,1-.29-.91,4.37,4.37,0,0,1,0-.45c0-.19,0-.39.05-.61s0-.43.07-.66,0-.44,0-.65l-.54,0-.28,0a1.42,1.42,0,0,1-.07-.22.81.81,0,0,1,0-.2.24.24,0,0,1,.05-.14.18.18,0,0,1,.16-.07Z" transform="translate(-520.28 -386.74)"></path><path class="cls-2" d="M550.31,475.76a.81.81,0,0,0,.24.6.93.93,0,0,0,.69.24,1.76,1.76,0,0,0,1.28-.53,1.61,1.61,0,0,0,.39-.57,1.57,1.57,0,0,0,.15-.68,1,1,0,0,0-.24-.68.83.83,0,0,0-.71-.29,1.58,1.58,0,0,0-.72.16,1.89,1.89,0,0,0-.94,1,2,2,0,0,0-.14.71m-.91.12a2.18,2.18,0,0,1,.23-.95,3.11,3.11,0,0,1,.61-.84,3,3,0,0,1,.89-.6,2.45,2.45,0,0,1,1.07-.23,2.49,2.49,0,0,1,.82.12,1.56,1.56,0,0,1,.54.31,1.11,1.11,0,0,1,.3.45,1.5,1.5,0,0,1,.09.52,2,2,0,0,1-.25,1,3,3,0,0,1-.68.82,3.33,3.33,0,0,1-1,.57,3,3,0,0,1-1.14.22,2.2,2.2,0,0,1-.58-.08,1.33,1.33,0,0,1-.47-.25,1.27,1.27,0,0,1-.32-.43,1.41,1.41,0,0,1-.12-.61" transform="translate(-520.28 -386.74)"></path><path class="cls-2" d="M559.19,475.15a4,4,0,0,0,1.19-.34.59.59,0,0,0,.35-.5.54.54,0,0,0-.15-.41.56.56,0,0,0-.41-.15.71.71,0,0,0-.37.1.83.83,0,0,0-.3.29,1.51,1.51,0,0,0-.22.44,2.43,2.43,0,0,0-.09.57m4.29-.21a1.69,1.69,0,0,1,.27.13.2.2,0,0,1,.12.18.29.29,0,0,1,0,.14.53.53,0,0,1-.11.13c-.19.19-.39.38-.61.57a5.34,5.34,0,0,1-.76.52,4.89,4.89,0,0,1-.93.38,4.53,4.53,0,0,1-1.15.14,2.17,2.17,0,0,1-1.47-.43,1.58,1.58,0,0,1-.48-1.23,2.51,2.51,0,0,1,.15-.86,2.4,2.4,0,0,1,.44-.72,2.11,2.11,0,0,1,.66-.49,2,2,0,0,1,.85-.18,1.79,1.79,0,0,1,.55.07,1.21,1.21,0,0,1,.39.22.93.93,0,0,1,.23.3.68.68,0,0,1,.08.34,1,1,0,0,1-.61.85,6.5,6.5,0,0,1-1.81.58,1.13,1.13,0,0,0,.45.71,1.58,1.58,0,0,0,1,.27,2.53,2.53,0,0,0,.83-.13,3,3,0,0,0,.74-.35,4,4,0,0,0,.65-.52,8.37,8.37,0,0,0,.57-.62" transform="translate(-520.28 -386.74)"></path><path class="cls-2" d="M563.55,473.16c0-.17,0-.33,0-.46s0-.26-.06-.37-.06-.22-.08-.32a.62.62,0,0,1,.19-.12l.22-.1a.82.82,0,0,1,.28,0,.37.37,0,0,1,.31.14.63.63,0,0,1,.1.35c0,.13,0,.27,0,.42s0,.3,0,.46a8,8,0,0,0,.9-.1,3.08,3.08,0,0,0,.49-.13.67.67,0,0,1,.09.19.5.5,0,0,1,0,.23.32.32,0,0,1,0,.16.4.4,0,0,1-.21.12,2.05,2.05,0,0,1-.48.09c-.22,0-.51,0-.89,0q-.07.5-.12,1a8.15,8.15,0,0,0-.05,1,1.53,1.53,0,0,0,.06.47.64.64,0,0,0,.17.28.5.5,0,0,0,.25.13,1.39,1.39,0,0,0,.3,0,1.56,1.56,0,0,0,.61-.13,3,3,0,0,0,.64-.34,4.52,4.52,0,0,0,.58-.5,3.79,3.79,0,0,0,.48-.58,1.69,1.69,0,0,1,.27.13.22.22,0,0,1,.12.19.58.58,0,0,1,0,.1.87.87,0,0,1-.11.17,5.09,5.09,0,0,1-1.26,1.06,4.19,4.19,0,0,1-.83.39,2.74,2.74,0,0,1-.9.15,1.33,1.33,0,0,1-.87-.24,1.15,1.15,0,0,1-.28-.91,4,4,0,0,1,0-.45c0-.19,0-.39.06-.61s0-.43.06-.66,0-.44,0-.65c-.22,0-.4,0-.53,0l-.29,0a1.42,1.42,0,0,1-.07-.22,1.68,1.68,0,0,1,0-.2.19.19,0,0,1,0-.14.17.17,0,0,1,.16-.07Z" transform="translate(-520.28 -386.74)"></path><path class="cls-2" d="M567.9,476c.07-.09.14-.2.22-.32s.15-.22.24-.36l.33-.46c.11-.15.24-.33.4-.53s.31-.39.46-.56a6.13,6.13,0,0,1,.43-.44c.12-.13.21-.19.27-.19a.45.45,0,0,1,.17,0,.66.66,0,0,1,.19.09.61.61,0,0,1,.14.17.35.35,0,0,1,.07.23c0,.47,0,.87,0,1.21a3,3,0,0,0,.21.85,1.11,1.11,0,0,0,.39.5,1.25,1.25,0,0,0,.65.16,1.72,1.72,0,0,0,.68-.13,2.4,2.4,0,0,0,.61-.33,4.78,4.78,0,0,0,.54-.47c.16-.18.32-.37.46-.56a1.69,1.69,0,0,1,.27.13.2.2,0,0,1,.12.18.21.21,0,0,1,0,.14.75.75,0,0,1-.13.15c-.18.18-.38.37-.6.55a4.92,4.92,0,0,1-.69.51,3.83,3.83,0,0,1-.79.38,2.72,2.72,0,0,1-.86.14,2.38,2.38,0,0,1-.55-.06,1,1,0,0,1-.43-.22,1.29,1.29,0,0,1-.32-.42,2.44,2.44,0,0,1-.24-.68c0-.18-.07-.36-.1-.53s0-.34-.07-.47,0-.25-.05-.33,0-.12,0-.12-.07,0-.16.12a4.22,4.22,0,0,0-.3.3,3.79,3.79,0,0,0-.34.43,3,3,0,0,0-.29.47,6.83,6.83,0,0,0-.32.73,3.93,3.93,0,0,0-.15.59.38.38,0,0,1-.06.17.18.18,0,0,1-.15.06,1.06,1.06,0,0,1-.23,0l-.28-.05-.25-.08a.26.26,0,0,1-.12-.08,4.76,4.76,0,0,1-.09-.54c0-.27-.07-.6-.1-1s-.07-.76-.11-1.18-.06-.82-.09-1.2,0-.72-.05-1,0-.51,0-.63a2,2,0,0,1,.23-1.13.73.73,0,0,1,.64-.34.71.71,0,0,1,.41.12.48.48,0,0,1,.17.41.66.66,0,0,1,0,.21c0,.07,0,.13,0,.18a.52.52,0,0,1-.07.15.46.46,0,0,0-.2.05.33.33,0,0,0-.16.17,1.56,1.56,0,0,0-.1.34,4.22,4.22,0,0,0,0,.55c0,.19,0,.45,0,.77s0,.67,0,1l.09,1.12c0,.38.08.71.14,1" transform="translate(-520.28 -386.74)"></path><path class="cls-2" d="M574.8,475.15a4,4,0,0,0,1.19-.34.59.59,0,0,0,.35-.5.53.53,0,0,0-.57-.56.7.7,0,0,0-.36.1,1,1,0,0,0-.31.29,1.8,1.8,0,0,0-.21.44,2,2,0,0,0-.09.57m4.29-.21.26.13a.2.2,0,0,1,.12.18.29.29,0,0,1,0,.14l-.11.13c-.19.19-.39.38-.62.57a4.73,4.73,0,0,1-.75.52,4.89,4.89,0,0,1-.93.38,4.59,4.59,0,0,1-1.15.14,2.17,2.17,0,0,1-1.47-.43,1.58,1.58,0,0,1-.49-1.23,2.52,2.52,0,0,1,.16-.86,2.22,2.22,0,0,1,.44-.72,2,2,0,0,1,1.5-.67,1.86,1.86,0,0,1,.56.07,1.21,1.21,0,0,1,.39.22.93.93,0,0,1,.23.3.81.81,0,0,1,.08.34,1,1,0,0,1-.61.85,6.62,6.62,0,0,1-1.81.58,1.13,1.13,0,0,0,.45.71,1.57,1.57,0,0,0,1,.27,2.55,2.55,0,0,0,.84-.13,3,3,0,0,0,.74-.35,4,4,0,0,0,.65-.52,8.37,8.37,0,0,0,.57-.62" transform="translate(-520.28 -386.74)"></path><path class="cls-2" d="M579.17,475.87c-.06-.21-.13-.4-.2-.6s-.13-.38-.19-.56-.12-.33-.17-.47a2,2,0,0,1-.12-.33,1.76,1.76,0,0,1,.3-.19,1,1,0,0,1,.37-.09.28.28,0,0,1,.16.05.51.51,0,0,1,.1.21c0,.1,0,.25.06.44s0,.44.06.76a4.23,4.23,0,0,1,.55-1.88,1.17,1.17,0,0,1,1-.68.51.51,0,0,1,.35.11.41.41,0,0,1,.12.31.76.76,0,0,1,0,.15s0,.08,0,.12l0,.11h-.22a.72.72,0,0,0-.48.19,1.76,1.76,0,0,0-.4.48,2.83,2.83,0,0,0-.27.69,3,3,0,0,0-.11.78,4.86,4.86,0,0,0,0,.56,3,3,0,0,0,.09.47,2,2,0,0,0,.11.44l-.27.13a1,1,0,0,1-.35.06c-.16,0-.26-.09-.31-.29a4.66,4.66,0,0,1-.09-1" transform="translate(-520.28 -386.74)"></path><path class="cls-2" d="M585.63,474.65a.59.59,0,0,1-.07-.2.75.75,0,0,1,0-.2.24.24,0,0,1,.05-.14.22.22,0,0,1,.16-.06l.33,0,.29,0v-.37a9.77,9.77,0,0,1,.11-1.5,4.31,4.31,0,0,1,.33-1.16,2,2,0,0,1,.6-.74,1.45,1.45,0,0,1,.89-.27,1.54,1.54,0,0,1,.61.12,1.92,1.92,0,0,1,.49.29,1.54,1.54,0,0,1,.32.37.71.71,0,0,1,.11.37.43.43,0,0,1-.18.33,1.15,1.15,0,0,1-.43.21,3.92,3.92,0,0,0-.5-.72.72.72,0,0,0-.53-.28.6.6,0,0,0-.51.29,2.24,2.24,0,0,0-.32.73,5.38,5.38,0,0,0-.16.95c0,.34,0,.67,0,1v.34c.49-.05.86-.09,1.13-.14a3,3,0,0,0,.6-.14.69.69,0,0,1,.09.22.69.69,0,0,1,0,.26.22.22,0,0,1-.06.15.59.59,0,0,1-.25.11l-.57.09-1,.08a11.76,11.76,0,0,0,.45,2.71,8.19,8.19,0,0,0,.79,1.85,1,1,0,0,1-.28.32.66.66,0,0,1-.36.14c-.13,0-.25-.13-.38-.38a10.26,10.26,0,0,1-.45-1.35c-.11-.42-.22-.92-.32-1.49s-.18-1.15-.23-1.76Z" transform="translate(-520.28 -386.74)"></path><path class="cls-2" d="M590.19,475.76a.81.81,0,0,0,.24.6.91.91,0,0,0,.68.24,1.87,1.87,0,0,0,.71-.14,2.11,2.11,0,0,0,.58-.39,1.73,1.73,0,0,0,.38-.57,1.57,1.57,0,0,0,.15-.68,1.05,1.05,0,0,0-.23-.68.86.86,0,0,0-.72-.29,1.58,1.58,0,0,0-.72.16,1.82,1.82,0,0,0-.56.43,1.91,1.91,0,0,0-.38.61,1.94,1.94,0,0,0-.13.71m-.92.12a2.18,2.18,0,0,1,.23-.95,3.11,3.11,0,0,1,.61-.84,3.17,3.17,0,0,1,.89-.6,2.71,2.71,0,0,1,1.89-.11,1.56,1.56,0,0,1,.54.31,1.11,1.11,0,0,1,.3.45,1.5,1.5,0,0,1,.09.52,2,2,0,0,1-.25,1,3,3,0,0,1-.68.82,3.41,3.41,0,0,1-1,.57,3.05,3.05,0,0,1-1.15.22,2.12,2.12,0,0,1-.57-.08,1.38,1.38,0,0,1-.48-.25,1.27,1.27,0,0,1-.32-.43,1.41,1.41,0,0,1-.12-.61" transform="translate(-520.28 -386.74)"></path><path class="cls-2" d="M595.16,475.87c-.06-.21-.12-.4-.19-.6s-.14-.38-.2-.56l-.17-.47-.12-.33a1.55,1.55,0,0,1,.31-.19.87.87,0,0,1,.36-.09.25.25,0,0,1,.16.05.51.51,0,0,1,.1.21c0,.1,0,.25.06.44s0,.44.06.76a4.23,4.23,0,0,1,.55-1.88,1.17,1.17,0,0,1,1-.68.5.5,0,0,1,.34.11.41.41,0,0,1,.12.31.76.76,0,0,1,0,.15.56.56,0,0,1,0,.12l-.05.11h-.22a.75.75,0,0,0-.48.19,1.76,1.76,0,0,0-.4.48,3.31,3.31,0,0,0-.27.69,3,3,0,0,0-.11.78,3.28,3.28,0,0,0,0,.56,3.06,3.06,0,0,0,.08.47,2.83,2.83,0,0,0,.11.44l-.27.13a1,1,0,0,1-.35.06c-.15,0-.26-.09-.31-.29a4.66,4.66,0,0,1-.09-1" transform="translate(-520.28 -386.74)"></path><path class="cls-2" d="M605.74,475.76a.81.81,0,0,0,.24.6.89.89,0,0,0,.68.24,1.87,1.87,0,0,0,.71-.14,1.92,1.92,0,0,0,.57-.39,1.61,1.61,0,0,0,.39-.57,1.57,1.57,0,0,0,.15-.68,1.05,1.05,0,0,0-.23-.68.86.86,0,0,0-.72-.29,1.58,1.58,0,0,0-.72.16,1.71,1.71,0,0,0-.56.43,1.91,1.91,0,0,0-.38.61,1.94,1.94,0,0,0-.13.71m-.92.12a2.18,2.18,0,0,1,.23-.95,3.11,3.11,0,0,1,.61-.84,3.17,3.17,0,0,1,.89-.6,2.71,2.71,0,0,1,1.89-.11,1.56,1.56,0,0,1,.54.31,1.11,1.11,0,0,1,.3.45,1.5,1.5,0,0,1,.09.52,2,2,0,0,1-.25,1,3,3,0,0,1-.68.82,3.41,3.41,0,0,1-1,.57,3.05,3.05,0,0,1-1.15.22,2.12,2.12,0,0,1-.57-.08,1.38,1.38,0,0,1-.48-.25,1.27,1.27,0,0,1-.32-.43,1.41,1.41,0,0,1-.12-.61" transform="translate(-520.28 -386.74)"></path><path class="cls-2" d="M610.81,475.76a.81.81,0,0,0,.24.6.91.91,0,0,0,.68.24,1.87,1.87,0,0,0,.71-.14,2.11,2.11,0,0,0,.58-.39,1.92,1.92,0,0,0,.39-.57,1.72,1.72,0,0,0,.14-.68,1.05,1.05,0,0,0-.23-.68.85.85,0,0,0-.71-.29,1.6,1.6,0,0,0-.73.16,1.82,1.82,0,0,0-.56.43,1.91,1.91,0,0,0-.38.61,1.94,1.94,0,0,0-.13.71m-.92.12a2.18,2.18,0,0,1,.23-.95,3.11,3.11,0,0,1,.61-.84,3.17,3.17,0,0,1,.89-.6,2.71,2.71,0,0,1,1.89-.11,1.56,1.56,0,0,1,.54.31,1.11,1.11,0,0,1,.3.45,1.5,1.5,0,0,1,.09.52,2,2,0,0,1-.25,1,3,3,0,0,1-.68.82,3.41,3.41,0,0,1-1,.57,3.05,3.05,0,0,1-1.15.22,2.12,2.12,0,0,1-.57-.08,1.38,1.38,0,0,1-.48-.25,1.27,1.27,0,0,1-.32-.43,1.41,1.41,0,0,1-.12-.61" transform="translate(-520.28 -386.74)"></path><path class="cls-2" d="M618.66,474.64a1.08,1.08,0,0,0-.33-.56.89.89,0,0,0-.61-.23,1.54,1.54,0,0,0-.61.14,1.93,1.93,0,0,0-.56.4,2.21,2.21,0,0,0-.42.61,1.85,1.85,0,0,0-.17.78.92.92,0,0,0,.17.59.59.59,0,0,0,.45.2,1.38,1.38,0,0,0,.71-.19,2.81,2.81,0,0,0,.61-.48,4,4,0,0,0,.47-.63,3.41,3.41,0,0,0,.29-.63m1.92,1.6a1.65,1.65,0,0,1,0,.31,1,1,0,0,1-.09.28.61.61,0,0,1-.19.2.57.57,0,0,1-.31.07.68.68,0,0,1-.46-.16,1.27,1.27,0,0,1-.3-.43,2.66,2.66,0,0,1-.18-.62,4.2,4.2,0,0,1-.06-.72,5.05,5.05,0,0,1-.46.75,4.17,4.17,0,0,1-.63.69,3.16,3.16,0,0,1-.76.51,1.92,1.92,0,0,1-.84.2,1,1,0,0,1-.86-.35,1.47,1.47,0,0,1-.28-1,2.18,2.18,0,0,1,.22-.93,3.21,3.21,0,0,1,.59-.89,3.37,3.37,0,0,1,.87-.67,2.33,2.33,0,0,1,1.05-.26,1.88,1.88,0,0,1,.43.05,2.52,2.52,0,0,1,.33.14,1.06,1.06,0,0,1,.23.17l.16.15c0-.74,0-1.36,0-1.84a7.9,7.9,0,0,1,.16-1.16,1.32,1.32,0,0,1,.24-.6.38.38,0,0,1,.3-.18.56.56,0,0,1,.46.18.74.74,0,0,1,.15.49,5.14,5.14,0,0,1-.13,1.15c-.08.4-.17.76-.27,1.09s-.24.76-.38,1.13a7.45,7.45,0,0,0,0,.83,4.07,4.07,0,0,0,.15.7,1.42,1.42,0,0,0,.27.49.54.54,0,0,0,.42.18Z" transform="translate(-520.28 -386.74)"></path><path class="cls-2" d="M629.6,475.76a.81.81,0,0,0,.24.6.93.93,0,0,0,.69.24,1.76,1.76,0,0,0,1.28-.53,1.61,1.61,0,0,0,.39-.57,1.57,1.57,0,0,0,.15-.68,1,1,0,0,0-.24-.68.83.83,0,0,0-.71-.29,1.58,1.58,0,0,0-.72.16,1.89,1.89,0,0,0-.94,1,2,2,0,0,0-.14.71m-.91.12a2.18,2.18,0,0,1,.23-.95,3.11,3.11,0,0,1,.61-.84,3,3,0,0,1,.89-.6,2.45,2.45,0,0,1,1.07-.23,2.49,2.49,0,0,1,.82.12,1.56,1.56,0,0,1,.54.31,1.11,1.11,0,0,1,.3.45,1.5,1.5,0,0,1,.09.52,2,2,0,0,1-.25,1,3,3,0,0,1-.68.82,3.46,3.46,0,0,1-1,.57,3,3,0,0,1-1.14.22,2.2,2.2,0,0,1-.58-.08,1.33,1.33,0,0,1-.47-.25,1.27,1.27,0,0,1-.32-.43,1.41,1.41,0,0,1-.12-.61" transform="translate(-520.28 -386.74)"></path><path class="cls-2" d="M634.68,475.76a.81.81,0,0,0,.23.6.93.93,0,0,0,.69.24,1.87,1.87,0,0,0,.71-.14,1.92,1.92,0,0,0,.57-.39,1.61,1.61,0,0,0,.39-.57,1.57,1.57,0,0,0,.15-.68,1,1,0,0,0-.24-.68.83.83,0,0,0-.71-.29,1.58,1.58,0,0,0-.72.16,1.86,1.86,0,0,0-.57.43,2.07,2.07,0,0,0-.37.61,1.94,1.94,0,0,0-.13.71m-.92.12a2.18,2.18,0,0,1,.23-.95,3.11,3.11,0,0,1,.61-.84,3.17,3.17,0,0,1,.89-.6,2.71,2.71,0,0,1,1.89-.11,1.56,1.56,0,0,1,.54.31,1.11,1.11,0,0,1,.3.45,1.5,1.5,0,0,1,.09.52,2,2,0,0,1-.25,1,3,3,0,0,1-.68.82,3.41,3.41,0,0,1-1,.57,3.09,3.09,0,0,1-1.15.22,2.12,2.12,0,0,1-.57-.08,1.38,1.38,0,0,1-.48-.25,1.27,1.27,0,0,1-.32-.43,1.41,1.41,0,0,1-.12-.61" transform="translate(-520.28 -386.74)"></path><path class="cls-2" d="M642.33,474.64a1.08,1.08,0,0,0-.33-.56.87.87,0,0,0-.61-.23,1.46,1.46,0,0,0-.6.14,1.84,1.84,0,0,0-.57.4,2.21,2.21,0,0,0-.42.61,1.85,1.85,0,0,0-.17.78.92.92,0,0,0,.17.59.6.6,0,0,0,.46.2,1.34,1.34,0,0,0,.7-.19,2.81,2.81,0,0,0,.61-.48,4,4,0,0,0,.47-.63,3.41,3.41,0,0,0,.29-.63m1.92,1.6a1.1,1.1,0,0,1,0,.31,1,1,0,0,1-.09.28.61.61,0,0,1-.19.2.57.57,0,0,1-.31.07.64.64,0,0,1-.45-.16,1.16,1.16,0,0,1-.31-.43,2.66,2.66,0,0,1-.18-.62,4.2,4.2,0,0,1-.06-.72,5.05,5.05,0,0,1-.46.75,4.17,4.17,0,0,1-.63.69,3.11,3.11,0,0,1-.75.51,2,2,0,0,1-.85.2,1,1,0,0,1-.86-.35,1.47,1.47,0,0,1-.28-1,2.18,2.18,0,0,1,.22-.93,3.21,3.21,0,0,1,.59-.89,3.37,3.37,0,0,1,.87-.67,2.33,2.33,0,0,1,1-.26,1.88,1.88,0,0,1,.43.05,2.52,2.52,0,0,1,.33.14,1.06,1.06,0,0,1,.23.17l.16.15c0-.74,0-1.36.05-1.84a7.9,7.9,0,0,1,.16-1.16,1.59,1.59,0,0,1,.24-.6.38.38,0,0,1,.31-.18.55.55,0,0,1,.45.18.74.74,0,0,1,.15.49,5.14,5.14,0,0,1-.13,1.15c-.08.4-.17.76-.27,1.09s-.24.76-.38,1.13a5.61,5.61,0,0,0,0,.83,3.33,3.33,0,0,0,.14.7,1.42,1.42,0,0,0,.27.49.58.58,0,0,0,.42.18Z" transform="translate(-520.28 -386.74)"></path><path class="cls-2" d="M624.84,474.65a.93.93,0,0,1-.07-.2.75.75,0,0,1,0-.2.24.24,0,0,1,0-.14.24.24,0,0,1,.16-.06l.33,0,.3,0v-.37a9.84,9.84,0,0,1,.1-1.5A4,4,0,0,1,626,471a1.85,1.85,0,0,1,.59-.74,1.47,1.47,0,0,1,.89-.27,1.59,1.59,0,0,1,.62.12,1.86,1.86,0,0,1,.48.29,1.35,1.35,0,0,1,.32.37.73.73,0,0,1,.12.37.44.44,0,0,1-.19.33,1.15,1.15,0,0,1-.43.21,3.49,3.49,0,0,0-.5-.72.72.72,0,0,0-.53-.28.61.61,0,0,0-.51.29,2.24,2.24,0,0,0-.32.73,5.4,5.4,0,0,0-.15.95c0,.34,0,.67,0,1v.34c.48-.05.86-.09,1.12-.14a3,3,0,0,0,.6-.14.69.69,0,0,1,.09.22.73.73,0,0,1,.06.26.23.23,0,0,1-.07.15.53.53,0,0,1-.25.11l-.56.09-1,.08a11.8,11.8,0,0,0,.44,2.71,8.19,8.19,0,0,0,.79,1.85.92.92,0,0,1-.28.32.61.61,0,0,1-.36.14c-.13,0-.25-.13-.38-.38a9.21,9.21,0,0,1-.44-1.35,14.88,14.88,0,0,1-.33-1.49,16,16,0,0,1-.22-1.76Z" transform="translate(-520.28 -386.74)"></path><path class="cls-2" d="M603.8,479.54a.38.38,0,0,1-.3.13,1.08,1.08,0,0,1-.43-.13,1.73,1.73,0,0,1-.45-.33,1.6,1.6,0,0,1-.36-.46,1,1,0,0,1-.15-.53.63.63,0,0,1,.21-.45,3.7,3.7,0,0,1,.64-.46l.35.53a3.81,3.81,0,0,1,.3.49,3.71,3.71,0,0,1,.22.45,1.19,1.19,0,0,1,.08.4.57.57,0,0,1-.11.36m.66-1.53c-.13-.23-.29-.47-.47-.74l-.6-.89-.54-.81c-.15-.23-.26-.43-.36-.61a2.53,2.53,0,0,1-.2-.47,1.68,1.68,0,0,1-.06-.45.58.58,0,0,1,.13-.38.51.51,0,0,1,.41-.17.61.61,0,0,1,.45.18,2.75,2.75,0,0,1,.32.39.91.91,0,0,0,.29-.1.73.73,0,0,0,.21-.16.36.36,0,0,0,.09-.26.72.72,0,0,0-.33-.56,1.93,1.93,0,0,0-1.62-.13,1.49,1.49,0,0,0-.48.32,1,1,0,0,0-.3.44,1.41,1.41,0,0,0-.11.54,1.48,1.48,0,0,0,.1.57,3.26,3.26,0,0,0,.27.58c.11.2.26.43.43.68s.37.54.59.88a4.23,4.23,0,0,0-1.08.73.93.93,0,0,0-.33.63,1.46,1.46,0,0,0,.23.76,2.74,2.74,0,0,0,.59.69,3,3,0,0,0,.81.48,2.19,2.19,0,0,0,.89.19,1,1,0,0,0,.77-.3,1,1,0,0,0,.3-.77,1.92,1.92,0,0,0-.11-.61,5,5,0,0,0-.29-.65" transform="translate(-520.28 -386.74)"></path><path class="cls-2" d="M556.49,476.74l-.25-.35-.21-.33a4.34,4.34,0,0,0,1.22-.86,1.48,1.48,0,0,0,.43-1.06,1,1,0,0,0-.14-.51,1.5,1.5,0,0,0-.4-.44,2.06,2.06,0,0,0-.63-.31,3.09,3.09,0,0,0-.83-.11,1.46,1.46,0,0,0-1,.37,1.17,1.17,0,0,0-.27.42,1.46,1.46,0,0,0-.09.52,2.24,2.24,0,0,0,.09.6,4,4,0,0,0,.27.68c.13.25.28.52.46.81s.4.62.64,1c-.27.14-.49.25-.65.35a2.45,2.45,0,0,0-.4.29.86.86,0,0,0-.2.26.82.82,0,0,0,0,.28,1.33,1.33,0,0,0,.27.75,2.86,2.86,0,0,0,.66.69,4.26,4.26,0,0,0,.87.52,2.32,2.32,0,0,0,.88.2,1.13,1.13,0,0,0,.44-.07.81.81,0,0,0,.3-.19.6.6,0,0,0,.16-.26,1,1,0,0,0,.05-.29,1.6,1.6,0,0,0-.08-.47,3.2,3.2,0,0,0-.23-.52c-.11-.18-.24-.4-.4-.63s-.36-.51-.57-.83l.78-.4c.24-.12.45-.24.66-.36l.58-.33A1.07,1.07,0,0,0,559,476c.2-.14,0-.25.07-.31s.12-.11.12-.16.21-.13.16-.2a.43.43,0,0,0-.22-.12,4.63,4.63,0,0,1-.37.32c-.23.16-.47.31-.71.46l-.75.41-.81.39Zm-1.17-2a1.86,1.86,0,0,1-.13-.62.61.61,0,0,1,.16-.45.78.78,0,0,1,.53-.15,1.61,1.61,0,0,1,.37,0,1.23,1.23,0,0,1,.35.15.81.81,0,0,1,.26.26.68.68,0,0,1,.11.38.75.75,0,0,1-.09.33,1.66,1.66,0,0,1-.25.38,3.05,3.05,0,0,1-.36.36,2.77,2.77,0,0,1-.45.31,6.52,6.52,0,0,1-.5-1m1.29,3.64.34.55a2,2,0,0,1,.18.36.52.52,0,0,1,0,.21.32.32,0,0,1-.08.21.36.36,0,0,1-.25.1,1.08,1.08,0,0,1-.49-.16,2.54,2.54,0,0,1-.5-.36,2.12,2.12,0,0,1-.39-.47.77.77,0,0,1-.16-.43.54.54,0,0,1,.17-.4,2.89,2.89,0,0,1,.61-.4l.52.79" transform="translate(-520.28 -386.74)"></path></svg> 