<?xml version="1.0" encoding="UTF-8"?>
<!DOCTYPE svg PUBLIC "-//W3C//DTD SVG 1.1//EN" "http://www.w3.org/Graphics/SVG/1.1/DTD/svg11.dtd">
<svg xmlns="http://www.w3.org/2000/svg" version="1.1" width="204px" height="192px" style="shape-rendering:geometricPrecision; text-rendering:geometricPrecision; image-rendering:optimizeQuality; fill-rule:evenodd; clip-rule:evenodd" xmlns:xlink="http://www.w3.org/1999/xlink">
<g><path style="opacity:1" fill="#fffdf8" d="M -0.5,-0.5 C 2.5,-0.5 5.5,-0.5 8.5,-0.5C 4.20772,3.77726 1.20772,8.77726 -0.5,14.5C -0.5,9.5 -0.5,4.5 -0.5,-0.5 Z"/></g>
<g><path style="opacity:1" fill="#fcd602" d="M 8.5,-0.5 C 70.5,-0.5 132.5,-0.5 194.5,-0.5C 198.792,3.77726 201.792,8.77726 203.5,14.5C 203.5,68.5 203.5,122.5 203.5,176.5C 201.648,181.868 198.981,186.868 195.5,191.5C 132.833,191.5 70.1667,191.5 7.5,191.5C 4.01884,186.868 1.35218,181.868 -0.5,176.5C -0.5,122.5 -0.5,68.5 -0.5,14.5C 1.20772,8.77726 4.20772,3.77726 8.5,-0.5 Z"/></g>
<g><path style="opacity:1" fill="#fffdf8" d="M 194.5,-0.5 C 197.5,-0.5 200.5,-0.5 203.5,-0.5C 203.5,4.5 203.5,9.5 203.5,14.5C 201.792,8.77726 198.792,3.77726 194.5,-0.5 Z"/></g>
<g><path style="opacity:1" fill="#323133" d="M 106.5,13.5 C 107.5,13.5 108.5,13.5 109.5,13.5C 109.192,15.924 109.526,18.2573 110.5,20.5C 111.478,20.0233 112.311,19.3567 113,18.5C 115.164,20.8109 116.164,23.4775 116,26.5C 115.097,27.7014 113.931,28.5348 112.5,29C 107.833,29.6667 103.167,29.6667 98.5,29C 95.6043,24.5767 96.4376,20.7433 101,17.5C 101.494,19.1341 101.66,20.8008 101.5,22.5C 102.5,22.5 103.5,22.5 104.5,22.5C 104.7,19.3704 105.366,16.3704 106.5,13.5 Z"/></g>
<g><path style="opacity:1" fill="#323233" d="M 146.5,42.5 C 139.399,40.7721 132.066,39.7721 124.5,39.5C 99.6098,38.2917 74.9431,39.9583 50.5,44.5C 50.2606,42.5328 50.5939,40.6995 51.5,39C 56.9699,36.9203 62.6366,35.587 68.5,35C 90.8349,33.0144 113.168,33.0144 135.5,35C 142.666,35.5827 149.666,36.9161 156.5,39C 157.78,41.1317 157.78,43.2984 156.5,45.5C 160.631,45.7252 163.965,47.3919 166.5,50.5C 163.904,52.0998 162.57,54.4331 162.5,57.5C 143.266,54.7142 123.933,53.8808 104.5,55C 85.5786,56.5834 66.9119,59.4168 48.5,63.5C 48.2148,61.712 48.5481,60.0453 49.5,58.5C 52.1725,57.4992 54.8392,56.4992 57.5,55.5C 56.8333,55.1667 56.1667,54.8333 55.5,54.5C 51.9061,55.8194 48.2395,56.3194 44.5,56C 43.2528,54.5064 43.2528,53.0064 44.5,51.5C 46.3853,50.3906 48.3853,49.5573 50.5,49C 82.6987,44.5077 115.032,43.341 147.5,45.5C 152.444,44.3557 152.11,43.3557 146.5,42.5 Z"/></g>
<g><path style="opacity:1" fill="#7b6c2c" d="M 124.5,39.5 C 132.066,39.7721 139.399,40.7721 146.5,42.5C 138.934,42.2279 131.601,41.2279 124.5,39.5 Z"/></g>
<g><path style="opacity:1" fill="#313033" d="M 123.5,107.5 C 122.957,107.56 122.624,107.893 122.5,108.5C 130.124,109.676 137.791,110.343 145.5,110.5C 145.819,105.637 145.486,100.97 144.5,96.5C 144.615,85.4248 144.115,74.4248 143,63.5C 147.672,62.4439 150.672,64.4439 152,69.5C 152.434,83.5059 152.934,97.5059 153.5,111.5C 163.528,112.072 173.195,114.239 182.5,118C 184.396,119.808 184.896,121.975 184,124.5C 182.938,125.097 181.772,125.43 180.5,125.5C 167.457,119.842 153.79,116.675 139.5,116C 108.421,113.492 77.4211,114.158 46.5,118C 39.3001,120.678 31.9668,122.845 24.5,124.5C 18.5098,124.321 17.1765,121.821 20.5,117C 30.1384,113.36 40.1384,111.527 50.5,111.5C 50.1135,97.7042 51.2802,84.0375 54,70.5C 57.6,67.646 60.6,68.3127 63,72.5C 62.8763,77.1356 62.7096,81.8023 62.5,86.5C 60.5251,94.1164 60.1918,101.783 61.5,109.5C 69.8647,109.553 78.198,109.053 86.5,108C 83.0063,105.908 81.173,102.741 81,98.5C 80.3333,87.8333 80.3333,77.1667 81,66.5C 84.2432,64.7375 87.7432,64.0708 91.5,64.5C 89.8515,79.2472 90.1849,93.9139 92.5,108.5C 100.196,108.831 107.862,108.497 115.5,107.5C 114.258,92.8795 113.758,78.2128 114,63.5C 114.725,62.9415 115.558,62.6082 116.5,62.5C 119.068,63.5589 121.235,65.2256 123,67.5C 123.282,78.8455 123.782,90.1788 124.5,101.5C 124.427,103.59 124.094,105.59 123.5,107.5 Z"/></g>
<g><path style="opacity:1" fill="#988327" d="M 62.5,86.5 C 62.1114,94.1637 61.778,101.83 61.5,109.5C 60.1918,101.783 60.5251,94.1164 62.5,86.5 Z"/></g>
<g><path style="opacity:1" fill="#9f8a24" d="M 144.5,96.5 C 145.486,100.97 145.819,105.637 145.5,110.5C 137.791,110.343 130.124,109.676 122.5,108.5C 122.624,107.893 122.957,107.56 123.5,107.5C 130.33,108.426 137.33,109.093 144.5,109.5C 144.5,105.167 144.5,100.833 144.5,96.5 Z"/></g>
<g><path style="opacity:1" fill="#323133" d="M 26.5,143.5 C 28.5,143.5 30.5,143.5 32.5,143.5C 33.7722,150.8 34.9388,158.134 36,165.5C 37.9408,158.184 39.7741,150.851 41.5,143.5C 43.8333,143.5 46.1667,143.5 48.5,143.5C 49.3056,150.367 50.8056,157.033 53,163.5C 54.2765,156.841 55.4431,150.174 56.5,143.5C 58.5273,143.338 60.5273,143.505 62.5,144C 60.9172,153.173 59.0838,162.34 57,171.5C 54.544,173.321 51.7107,173.988 48.5,173.5C 46.2271,147.676 43.3938,147.342 40,172.5C 37.6194,173.435 35.1194,173.768 32.5,173.5C 30.3718,163.526 28.3718,153.526 26.5,143.5 Z"/></g>
<g><path style="opacity:1" fill="#bba11e" d="M 84.5,156.5 C 80.8333,156.5 77.1667,156.5 73.5,156.5C 73.5,153.5 73.5,150.5 73.5,147.5C 77.5,147.5 81.5,147.5 85.5,147.5C 85.5,146.167 85.5,144.833 85.5,143.5C 79.5,143.5 73.5,143.5 67.5,143.5C 67.5,153.5 67.5,163.5 67.5,173.5C 66.5058,163.347 66.1724,153.014 66.5,142.5C 73.1667,142.5 79.8333,142.5 86.5,142.5C 86.5,144.833 86.5,147.167 86.5,149.5C 82.5,149.5 78.5,149.5 74.5,149.5C 74.5,151.5 74.5,153.5 74.5,155.5C 78.0419,155.187 81.3752,155.521 84.5,156.5 Z"/></g>
<g><path style="opacity:1" fill="#302f33" d="M 84.5,156.5 C 84.5,157.833 84.5,159.167 84.5,160.5C 80.8333,160.5 77.1667,160.5 73.5,160.5C 73.5,163.167 73.5,165.833 73.5,168.5C 77.8333,168.5 82.1667,168.5 86.5,168.5C 86.5,170.167 86.5,171.833 86.5,173.5C 80.1667,173.5 73.8333,173.5 67.5,173.5C 67.5,163.5 67.5,153.5 67.5,143.5C 73.5,143.5 79.5,143.5 85.5,143.5C 85.5,144.833 85.5,146.167 85.5,147.5C 81.5,147.5 77.5,147.5 73.5,147.5C 73.5,150.5 73.5,153.5 73.5,156.5C 77.1667,156.5 80.8333,156.5 84.5,156.5 Z"/></g>
<g><path style="opacity:1" fill="#333233" d="M 91.5,143.5 C 96.5111,143.334 101.511,143.501 106.5,144C 112.402,147.587 113.069,152.087 108.5,157.5C 113.397,161.965 113.731,166.799 109.5,172C 103.593,173.361 97.5933,173.861 91.5,173.5C 91.5,163.5 91.5,153.5 91.5,143.5 Z"/></g>
<g><path style="opacity:1" fill="#2f2f33" d="M 129.5,143.5 C 147.536,140.699 154.703,148.032 151,165.5C 148.889,169.944 145.389,172.444 140.5,173C 136.848,173.499 133.182,173.665 129.5,173.5C 129.5,163.5 129.5,153.5 129.5,143.5 Z"/></g>
<g><path style="opacity:1" fill="#323133" d="M 176.5,147.5 C 172.167,147.5 167.833,147.5 163.5,147.5C 163.5,150.5 163.5,153.5 163.5,156.5C 167.167,156.5 170.833,156.5 174.5,156.5C 174.5,157.833 174.5,159.167 174.5,160.5C 170.833,160.5 167.167,160.5 163.5,160.5C 163.5,163.167 163.5,165.833 163.5,168.5C 167.833,168.5 172.167,168.5 176.5,168.5C 176.5,170.167 176.5,171.833 176.5,173.5C 170.167,173.5 163.833,173.5 157.5,173.5C 157.5,163.5 157.5,153.5 157.5,143.5C 163.833,143.5 170.167,143.5 176.5,143.5C 176.5,144.833 176.5,146.167 176.5,147.5 Z"/></g>
<g><path style="opacity:1" fill="#e7c711" d="M 97.5,147.5 C 104.716,146.688 106.716,149.355 103.5,155.5C 101.591,156.348 99.5914,156.682 97.5,156.5C 97.5,153.5 97.5,150.5 97.5,147.5 Z"/></g>
<g><path style="opacity:1" fill="#bea21d" d="M 140.5,148.5 C 139.167,148.5 137.833,148.5 136.5,148.5C 136.5,154.833 136.5,161.167 136.5,167.5C 138.5,167.5 140.5,167.5 142.5,167.5C 140.393,168.468 138.059,168.802 135.5,168.5C 135.5,161.5 135.5,154.5 135.5,147.5C 137.415,147.216 139.081,147.549 140.5,148.5 Z"/></g>
<g><path style="opacity:1" fill="#f9d504" d="M 140.5,148.5 C 144.87,150.057 146.87,153.224 146.5,158C 146.793,161.98 145.46,165.146 142.5,167.5C 140.5,167.5 138.5,167.5 136.5,167.5C 136.5,161.167 136.5,154.833 136.5,148.5C 137.833,148.5 139.167,148.5 140.5,148.5 Z"/></g>
<g><path style="opacity:1" fill="#8f7c26" d="M 176.5,147.5 C 172.702,148.483 168.702,148.817 164.5,148.5C 164.5,150.833 164.5,153.167 164.5,155.5C 168.167,155.5 171.833,155.5 175.5,155.5C 175.784,157.415 175.451,159.081 174.5,160.5C 174.5,159.167 174.5,157.833 174.5,156.5C 170.833,156.5 167.167,156.5 163.5,156.5C 163.5,153.5 163.5,150.5 163.5,147.5C 167.833,147.5 172.167,147.5 176.5,147.5 Z"/></g>
<g><path style="opacity:1" fill="#f1cf0b" d="M 97.5,160.5 C 100.187,160.336 102.854,160.503 105.5,161C 106.833,163.333 106.833,165.667 105.5,168C 102.854,168.497 100.187,168.664 97.5,168.5C 97.5,165.833 97.5,163.167 97.5,160.5 Z"/></g>
<g><path style="opacity:1" fill="#312f33" d="M 118.5,167.5 C 123.159,167.015 124.492,168.848 122.5,173C 117.711,173.845 116.377,172.011 118.5,167.5 Z"/></g>
<g><path style="opacity:1" fill="#fffcf3" d="M -0.5,176.5 C 1.35218,181.868 4.01884,186.868 7.5,191.5C 4.83333,191.5 2.16667,191.5 -0.5,191.5C -0.5,186.5 -0.5,181.5 -0.5,176.5 Z"/></g>
<g><path style="opacity:1" fill="#fffcf3" d="M 203.5,176.5 C 203.5,181.5 203.5,186.5 203.5,191.5C 200.833,191.5 198.167,191.5 195.5,191.5C 198.981,186.868 201.648,181.868 203.5,176.5 Z"/></g>
</svg>
