<?xml version="1.0" encoding="UTF-8"?>
<!DOCTYPE svg PUBLIC "-//W3C//DTD SVG 1.1//EN" "http://www.w3.org/Graphics/SVG/1.1/DTD/svg11.dtd">
<svg xmlns="http://www.w3.org/2000/svg" version="1.1" width="204px" height="192px" style="shape-rendering:geometricPrecision; text-rendering:geometricPrecision; image-rendering:optimizeQuality; fill-rule:evenodd; clip-rule:evenodd" xmlns:xlink="http://www.w3.org/1999/xlink">
<g><path style="opacity:1" fill="#fdd701" d="M -0.5,-0.5 C 67.5,-0.5 135.5,-0.5 203.5,-0.5C 203.5,63.5 203.5,127.5 203.5,191.5C 135.5,191.5 67.5,191.5 -0.5,191.5C -0.5,127.5 -0.5,63.5 -0.5,-0.5 Z"/></g>
<g><path style="opacity:1" fill="#313133" d="M 105.5,44.5 C 107.095,46.1112 108.261,48.1112 109,50.5C 110,49.1667 111,49.1667 112,50.5C 112.808,52.5787 112.641,54.5787 111.5,56.5C 107.223,57.6055 102.89,57.7722 98.5,57C 96.9309,53.6842 97.5975,50.8508 100.5,48.5C 101.167,49.5 101.833,50.5 102.5,51.5C 102.833,51.3333 103.167,51.1667 103.5,51C 104.23,48.846 104.897,46.6794 105.5,44.5 Z"/></g>
<g><path style="opacity:1" fill="#817129" d="M 85.5,61.5 C 91.8245,60.8337 98.3245,60.5004 105,60.5C 114.385,60.3017 123.552,60.9684 132.5,62.5C 116.849,61.6583 101.182,61.325 85.5,61.5 Z"/></g>
<g><path style="opacity:1" fill="#313133" d="M 85.5,61.5 C 101.182,61.325 116.849,61.6583 132.5,62.5C 136.496,63.1692 140.496,64.0026 144.5,65C 146.62,66.5227 146.953,68.3561 145.5,70.5C 147.465,71.2922 149.465,71.9588 151.5,72.5C 151.833,73.1667 152.167,73.8333 152.5,74.5C 151.579,76.1305 150.745,77.7971 150,79.5C 149.275,80.0585 148.442,80.3918 147.5,80.5C 143.324,78.9785 138.991,78.1452 134.5,78C 115.388,76.937 96.3876,77.937 77.5,81C 72.0843,82.1939 66.751,83.6939 61.5,85.5C 58.9185,85.2534 58.0851,83.92 59,81.5C 61.456,80.4258 63.956,79.4258 66.5,78.5C 62.9302,78.0914 59.2635,78.0914 55.5,78.5C 55.2965,76.6096 55.9632,75.1096 57.5,74C 63.5321,73.1629 69.5321,72.1629 75.5,71C 97.5009,69.5618 119.501,69.0618 141.5,69.5C 129.425,66.1527 117.091,64.8194 104.5,65.5C 89.6828,65.2947 75.0161,66.6281 60.5,69.5C 59.9648,66.7615 60.9648,64.9282 63.5,64C 70.7712,62.6571 78.1045,61.8237 85.5,61.5 Z"/></g>
<g><path style="opacity:1" fill="#333233" d="M 118.5,87.5 C 118.362,97.8542 118.695,108.188 119.5,118.5C 119.196,119.15 118.863,119.817 118.5,120.5C 121.086,121.48 123.753,121.813 126.5,121.5C 129.625,122.479 132.958,122.813 136.5,122.5C 136.824,115.646 136.491,108.979 135.5,102.5C 135.239,96.4798 135.072,90.4798 135,84.5C 136.049,83.4829 137.216,83.3162 138.5,84C 139.304,85.7713 140.471,87.2713 142,88.5C 142.5,100.162 142.667,111.829 142.5,123.5C 150.422,123.651 158.088,125.151 165.5,128C 168.409,130.839 168.075,133.006 164.5,134.5C 157.511,131.266 150.178,129.1 142.5,128C 114.487,124.749 86.487,124.749 58.5,128C 52.3122,129.841 46.1456,131.674 40,133.5C 32.9318,131.605 32.7651,129.105 39.5,126C 46.4454,124.424 53.4454,123.257 60.5,122.5C 60.4542,115.809 60.7875,109.143 61.5,102.5C 62.7947,98.7329 63.4613,94.7329 63.5,90.5C 65.838,87.8609 68.0047,88.1942 70,91.5C 70.2311,101.527 69.7311,111.527 68.5,121.5C 75.1972,121.452 81.8639,120.952 88.5,120C 86.5125,118.681 85.3459,116.848 85,114.5C 84.3333,105.5 84.3333,96.5 85,87.5C 87.4815,85.6863 90.3148,85.0196 93.5,85.5C 92.118,96.8768 92.2847,108.21 94,119.5C 99.7412,120.475 105.575,120.808 111.5,120.5C 112.29,109.002 112.29,97.3355 111.5,85.5C 114.45,82.8048 116.783,83.4714 118.5,87.5 Z"/></g>
<g><path style="opacity:1" fill="#6c602b" d="M 118.5,87.5 C 119.28,96.338 119.947,105.338 120.5,114.5C 120.489,116.045 120.156,117.378 119.5,118.5C 118.695,108.188 118.362,97.8542 118.5,87.5 Z"/></g>
<g><path style="opacity:1" fill="#9d8a25" d="M 63.5,90.5 C 63.4613,94.7329 62.7947,98.7329 61.5,102.5C 61.1977,98.2095 61.8643,94.2095 63.5,90.5 Z"/></g>
<g><path style="opacity:1" fill="#ac9520" d="M 111.5,85.5 C 112.29,97.3355 112.29,109.002 111.5,120.5C 110.65,108.666 110.65,96.9993 111.5,85.5 Z"/></g>
<g><path style="opacity:1" fill="#9f8a24" d="M 135.5,102.5 C 136.491,108.979 136.824,115.646 136.5,122.5C 132.958,122.813 129.625,122.479 126.5,121.5C 129.5,121.5 132.5,121.5 135.5,121.5C 135.5,115.167 135.5,108.833 135.5,102.5 Z"/></g>
</svg>
