<?xml version="1.0" encoding="utf-8"?><svg xmlns="http://www.w3.org/2000/svg" xmlns:xlink="http://www.w3.org/1999/xlink"><defs><svg viewBox="0 0 20 20" id="add" xmlns="http://www.w3.org/2000/svg"><path fill="none" stroke="#000" stroke-width="2" stroke-linecap="round" stroke-linejoin="round" stroke-miterlimit="10" d="M10 4v12M16 10H4"/></svg><svg viewBox="0 0 20 20" id="addressbook" xmlns="http://www.w3.org/2000/svg"><path class="aba" d="M15.513 5a.515.515 0 00-.513.513V20H4a2.006 2.006 0 01-2-2V2a2 2 0 012-2h12a2.006 2.006 0 012 2v3zm2.479 4.492a.511.511 0 01-.513.508H16V6h1.992zm0 4.979a.511.511 0 01-.513.508H16v-3.937h1.992zm0 5a.511.511 0 01-.513.508H16V16h1.992zM9.046 5c-2.082 0-1.921 1.437-1.7 2.766.265 1.583.884 1.83.884 1.83a1.319 1.319 0 001.631 0c.03-.023.619-.247.883-1.83C10.968 6.437 10.973 5 9.046 5zm3.88 7.407c-.42-1.681-1.3-1.886-2.093-1.886a1.866 1.866 0 01-.228-.038 1.968 1.968 0 01-3.087-.016s-.042.06-.227.06c-.937 0-1.652.26-2.141 1.793C5.13 12.482 5 16 5 16h8s-.054-3.43-.074-3.593z"/></svg><svg viewBox="0 0 20 20" id="arrow-down" xmlns="http://www.w3.org/2000/svg"><path d="M10 14.5c-.3 0-.5-.1-.7-.3l-7-7c-.4-.4-.4-1 0-1.4.4-.4 1-.4 1.4 0l6.3 6.3 6.3-6.3c.4-.4 1-.4 1.4 0 .4.4.4 1 0 1.4l-7 7c-.2.2-.5.3-.7.3z"/></svg><svg viewBox="0 0 20 20" id="attachment" xmlns="http://www.w3.org/2000/svg"><path d="M18.1.7c-1.3-1-3.3-1-4.5.7l-9 11.8-.3.4c-.6.7-.8 1.9.1 2.8.4.3.9.5 1.4.4.7-.1 1.2-.5 1.5-.8l3.8-4.9 4.8-6.3c.2-.3.2-.8-.1-1-.3-.2-.8-.2-1 .1L10 10.2 6.2 15c0 .1-.3.2-.5.3-.1 0-.2 0-.3-.1-.3-.3 0-.8.1-.9l.3-.4 9-11.8c.7-1 1.9-.9 2.5-.4.3.3.6.7.7 1.1 0 .5 0 1-.4 1.5 0 0-9.6 12.5-9.6 12.6-.7.9-1.7 1.6-2.6 1.7-.8.1-1.5-.1-2.1-.6-1.6-1.2-1.3-3.4-.2-4.9 0-.1 8.6-11.4 8.6-11.4.1-.1.2-.3.2-.4 0-.4-.3-.7-.7-.7-.2 0-.4.1-.6.3 0 0-8.6 11.3-8.7 11.4-1.8 2.3-1.6 5.3.4 6.9.8.5 1.7.8 2.6.8h.6c1.3-.2 2.6-1 3.6-2.2.1-.1 9.6-12.6 9.6-12.6.6-.7.8-1.6.6-2.5-.1-.8-.6-1.6-1.2-2z"/></svg><svg viewBox="0 0 20 20" id="back" xmlns="http://www.w3.org/2000/svg"><path d="M5.5 10c0-.3.1-.5.3-.7l7-7c.4-.4 1-.4 1.4 0 .4.4.4 1 0 1.4L7.9 10l6.3 6.3c.4.4.4 1 0 1.4-.4.4-1 .4-1.4 0l-7-7c-.2-.2-.3-.5-.3-.7z"/></svg><svg viewBox="0 0 20 20" id="caret-down" xmlns="http://www.w3.org/2000/svg"><g clip-rule="evenodd"><path d="M10 10.6L5.4 6c-.3-.3-.9-.3-1.3 0l-.7.7c-.4.4-.4 1 0 1.3l5.2 5.2.8.8c.2.2.4.2.6.2.2 0 .5-.1.6-.3l.7-.7L16.6 8c.4-.4.4-.9 0-1.3l-.7-.7c-.4-.4-.9-.4-1.3 0L10 10.6z" fill-rule="evenodd"/><path fill="none" d="M0 0h20v20H0z"/></g></svg><svg viewBox="0 0 20 20" id="caret-up" xmlns="http://www.w3.org/2000/svg"><g clip-rule="evenodd"><path d="M10 9.4L5.4 14c-.4.4-.9.4-1.3 0l-.7-.7c-.4-.4-.4-1 0-1.3l5.2-5.2.8-.8c.2-.2.4-.3.6-.3.2 0 .5.1.6.3l.7.7 5.2 5.2c.4.4.4.9 0 1.3l-.6.8c-.4.4-.9.4-1.3 0L10 9.4z" fill-rule="evenodd"/><path fill="none" d="M0 0h20v20H0z"/></g></svg><svg viewBox="0 0 20 20" id="close" xmlns="http://www.w3.org/2000/svg"><path d="M11.4 10l5.3-5.3c.4-.4.4-1 0-1.4-.4-.4-1-.4-1.4 0L10 8.6 4.7 3.3c-.4-.4-1-.4-1.4 0s-.4 1 0 1.4L8.6 10l-5.3 5.3c-.4.4-.4 1 0 1.4.2.2.4.3.7.3.3 0 .5-.1.7-.3l5.3-5.3 5.3 5.3c.2.2.5.3.7.3.3 0 .5-.1.7-.3.4-.4.4-1 0-1.4L11.4 10z"/></svg><svg viewBox="0 0 20 20" id="cloud-function" xmlns="http://www.w3.org/2000/svg"><path d="M4.52 15.9a4.64 4.64 0 01-4-2 3.27 3.27 0 01-.17-3.4 3.4 3.4 0 012.89-1.88h.63V8A4.08 4.08 0 017 4.26 6 6 0 018.67 4a4.29 4.29 0 013.73 2.1l.32.6.57-.36a2.76 2.76 0 011.4-.34 2.87 2.87 0 011.47.42A2.4 2.4 0 0117.39 9l-.19.7.71.09a2.44 2.44 0 012 1.76 2.94 2.94 0 01-.47 2.65 4.72 4.72 0 01-3.23 1.66z"/></svg><svg viewBox="0 0 20 20" id="compose" xmlns="http://www.w3.org/2000/svg"><path d="M16.5 17.9c0 .3-.2.5-.5.5H1.9c-.3 0-.5-.2-.5-.5V3.8c0-.3.2-.5.5-.5h8.6l1.4-1.4h-10C.8 1.9 0 2.7 0 3.8V18c0 1 .8 1.9 1.9 1.9H16c1 0 1.9-.8 1.9-1.9V8l-1.4 1.4v8.5z"/><path d="M19.7 2.9L17 .2c-.2-.2-.6-.2-.8 0L7.9 8.4c-.1 0-.1.1-.1.2l-1.4 4.1c-.1.2 0 .4.1.6.1.1.4.2.6.1l4.1-1.4c.1 0 .2-.1.2-.1l8.2-8.2c.3-.2.3-.6.1-.8zm-2.3 1.7l-2.3-2.3.9-.8 2.3 2.3-.9.8z"/></svg><svg viewBox="0 0 20 20" id="confidential" xmlns="http://www.w3.org/2000/svg"><path d="M10 3C6.8 3 7 5.3 7.3 7.3c.4 2.5 1.4 2.9 1.4 2.9s1.2 1 2.5 0c0 0 1-.4 1.4-2.9C13 5.3 13 3 10 3zm6.1 11.3c-.7-2.6-2-3-3.3-3-.2 0-.3-.1-.4-.1-2.7 2.7-4.8 0-4.8 0s-.1.1-.4.1c-1.5 0-2.6.4-3.3 2.8 0 .3-.2 3.8-.2 3.8h12.5c.1.1-.1-3.4-.1-3.6z" fill-rule="evenodd" clip-rule="evenodd"/></svg><svg viewBox="0 0 20 20" id="delete" xmlns="http://www.w3.org/2000/svg"><path d="M18 3c0-.5-.4-1-1-1h-5v-.5c0-.8-.7-1.5-1.5-1.5h-1C8.7 0 8 .7 8 1.5V2H3c-.6 0-1 .4-1 1v2h1.6l1.2 12.7C4.7 19 5.2 20 6.5 20h7c1.3 0 1.8-1 1.8-2.3L16.4 5H18V3zm-4.6 9.7c.3.3.3.7 0 1l-.6.6c-.3.3-.7.3-1 0L10 12.5l-1.8 1.8c-.3.3-.7.3-1 0l-.6-.6c-.3-.3-.3-.7 0-1l1.8-1.8L6.6 9c-.3-.3-.3-.7 0-1l.6-.6c.3-.3.7-.3 1 0L10 9.3l1.8-1.8c.3-.3.7-.3 1 0l.6.5c.3.3.3.7 0 1l-1.8 1.8 1.8 1.9z" fill-rule="evenodd" clip-rule="evenodd"/></svg><svg viewBox="0 0 20 20" id="demail-inverted" xmlns="http://www.w3.org/2000/svg"><path d="M12.1 9.8c.3-1.4 1.1-2.5 2.4-2.5 1.1 0 1.6.5 1.6 1.6 0 .2 0 .5-.1.8v.1h-3.9zm7 4.6v2.3c0 .7-.7 1.3-1.4 1.3H2.4c-.7 0-1.3-.6-1.3-1.4V2.4c0-.8.6-1.4 1.3-1.4h15.2c.7 0 1.4.6 1.4 1.4V8c0 4-.6 5.4-5.5 5.5-1.1 0-1.9-.5-1.9-1.6 0-.3 0-.6.1-.9v-.2h5c.2 0 .3-.1.3-.3l.1-.6c.1-.3.1-.6.1-.9 0-1.6-.9-2.8-2.7-2.8-2.1 0-3.5 1.3-3.9 3.7l-.2 1c-.1.3-.1.6-.1.9 0 2 1.5 2.8 2.9 2.7 5.4 0 6.6-1.9 6.6-6.4v-6S20 0 17.9 0H2.1S0 0 0 2.1v14.7s0 2.1 2.1 2.1h15.7s2.1 0 2.1-2.1v-3.6c.1.1-.6 1.1-.8 1.2M3.6 13.3l1.5-8.8h1.6c1.4 0 2.5.5 2.5 2.4 0 .3 0 .7-.1 1.1l-.3 2c-.4 2.6-1.9 3.5-3.6 3.5-.7-.1-1.2-.1-1.6-.2m.3-9.5L2.2 14v.1c0 .2.1.3.3.3.4.1 1.5.1 2.5.1 2.7 0 4.5-1.3 5-4.6l.3-2c.1-.4.1-.8.1-1.1 0-2.3-1.4-3.5-3.6-3.5-1.1 0-2.2.1-2.6.1-.2.1-.3.2-.3.4"/></svg><svg viewBox="0 0 20 20" id="draft" xmlns="http://www.w3.org/2000/svg"><path d="M18.8 4.9l-3.7-3.7c-.3-.3-.8-.3-1 0l-11 11c-.1.1-.1.2-.2.3L1 18c-.1.3 0 .6.2.8.2.2.5.3.8.2l5.5-1.8c.1 0 .2-.1.3-.2l11-11c.3-.4.3-.8 0-1.1zm-4.9-1.8l3 3-1.1 1.1-3-3 1.1-1.1z"/></svg><svg viewBox="0 0 20 20" id="encrypted" xmlns="http://www.w3.org/2000/svg"><path fill="none" d="M0 .11h20V20H0z"/><path class="aob" d="M15.6 8h-.076V6.747a5.634 5.634 0 00-11.267 0v1.268a1.343 1.343 0 00-.376.092 1.363 1.363 0 00-.43.291 1.348 1.348 0 00-.4.955v9.295A1.356 1.356 0 004.4 20h11.2a1.356 1.356 0 001.352-1.352V9.352A1.356 1.356 0 0015.6 8zM6.018 8v-.873a3.869 3.869 0 117.738 0V8z"/></svg><svg viewBox="0 0 20 20" id="error" xmlns="http://www.w3.org/2000/svg"><path d="M19.82 17L11.18 2a1.36 1.36 0 00-2.36 0L.18 17a1.36 1.36 0 001.18 2h17.28a1.36 1.36 0 001.18-2zM8.81 6h2.41L11 13H9zM11 17H9v-2h2z"/></svg><svg viewBox="0 0 20 20" id="failure" xmlns="http://www.w3.org/2000/svg"><path d="M19.82 17L11.18 2a1.36 1.36 0 00-2.36 0L.18 17a1.36 1.36 0 001.18 2h17.28a1.36 1.36 0 001.18-2zM8.81 6h2.41L11 13H9zM11 17H9v-2h2z"/></svg><svg viewBox="0 0 20 20" id="folder" xmlns="http://www.w3.org/2000/svg"><path d="M17.5 4h-6.8c-.3-.3-1.7-1.8-2.1-2.2-.8-.7-1.2-.8-2.1-.8h-4C1.1 1 0 2.1 0 3.5v11C0 15.9 1.1 17 2.5 17h15c1.4 0 2.5-1.1 2.5-2.5v-8C20 5.1 18.9 4 17.5 4z"/></svg><svg viewBox="0 0 20 20" id="folder-closed" xmlns="http://www.w3.org/2000/svg"><path d="M17.5 4h-6.8c-.3-.3-1.7-1.8-2.1-2.2-.8-.7-1.2-.8-2.1-.8h-4C1.1 1 0 2.1 0 3.5v11C0 15.9 1.1 17 2.5 17h15c1.4 0 2.5-1.1 2.5-2.5v-8C20 5.1 18.9 4 17.5 4zM14 10l-3.2 3.2c-.2.2-.4.3-.7.3-.3 0-.5-.1-.7-.3L6 10c-.2-.2-.3-.5-.3-.8 0-.2.1-.5.3-.7l.4-.4c.4-.4 1.1-.4 1.4 0l2.1 2.1L12 8.1c.4-.4 1.1-.4 1.4 0l.6.4c.2.2.3.4.3.7 0 .3-.1.6-.3.8z"/></svg><svg viewBox="0 0 20 20" id="folder-opened" xmlns="http://www.w3.org/2000/svg"><path d="M17.5 4h-6.8c-.3-.3-1.7-1.8-2.1-2.2-.8-.7-1.2-.8-2.1-.8h-4C1.1 1 0 2.1 0 3.5v11C0 15.9 1.1 17 2.5 17h15c1.4 0 2.5-1.1 2.5-2.5v-8C20 5.1 18.9 4 17.5 4zM14 12.8l-.4.4c-.4.4-1.1.4-1.4 0L10 11.1l-2.1 2.1c-.4.4-1.1.4-1.4 0l-.5-.4c-.2-.2-.3-.4-.3-.7 0-.3.1-.5.3-.7l3.3-3.3c.2-.2.4-.3.7-.3.3 0 .5.1.7.3l3.2 3.2c.2.2.3.4.3.7.1.4 0 .6-.2.8z"/></svg><svg viewBox="0 0 20 20" id="forward" xmlns="http://www.w3.org/2000/svg"><path d="M2 15.1c0-4.2 3.3-7.7 7.5-7.8h4.3l-2.6-2.6c-.3-.3-.3-.8 0-1.1l.7-.6c.3-.3.8-.3 1.1 0l4.3 4.3.6.6c0 .2.1.3.1.5s-.1.4-.2.5l-.6.6-4.3 4.3c-.3.3-.8.3-1.1 0l-.6-.6c-.3-.3-.3-.8 0-1.1l2.6-2.6h-4C6.7 9.5 4.3 12 4.3 15v1.3c0 .4-.3.7-.7.7h-.9c-.4 0-.7-.3-.7-.7v-1.2z" fill-rule="evenodd" clip-rule="evenodd"/></svg><svg viewBox="0 0 20 20" id="forwarded-replied" xmlns="http://www.w3.org/2000/svg"><path d="M8.3 10c.3-.3.3-.7 0-1l-2-2h6c.4 0 .7-.3.7-.7v-.8c0-.4-.3-.7-.7-.7h-6l2-2c.3-.3.3-.7 0-1l-.6-.3c-.3-.3-.7-.3-1 0L3.2 5l-.5.5c-.1.2-.2.3-.2.5s.1.4.2.5l.5.5 3.5 3.5c.3.3.7.3 1 0l.6-.5zM10.7 10c-.3.3-.3.7 0 1l2 2h-6c-.4 0-.7.3-.7.7v.8c0 .4.3.7.7.7h6l-2 2c-.3.3-.3.7 0 1l.5.5c.3.3.7.3 1 0l3.5-3.5.5-.5c.1-.1.2-.3.2-.5s-.1-.4-.2-.5l-.5-.7-3.5-3.5c-.3-.3-.7-.3-1 0l-.5.5z" fill-rule="evenodd" clip-rule="evenodd"/></svg><svg viewBox="0 0 20 20" id="fullscreen-close" xmlns="http://www.w3.org/2000/svg"><path d="M8 2.5v5c0 .3-.2.5-.5.5h-5c-.3 0-.5-.2-.5-.5v-1c0-.3.2-.5.5-.5H6V2.5c0-.3.2-.5.5-.5h1c.3 0 .5.2.5.5zM8 17.5v-5c0-.3-.2-.5-.5-.5h-5c-.3 0-.5.2-.5.5v1c0 .3.2.5.5.5H6v3.5c0 .3.2.5.5.5h1c.3 0 .5-.2.5-.5zM12 17.5v-5c0-.3.2-.5.5-.5h5c.3 0 .5.2.5.5v1c0 .3-.2.5-.5.5H14v3.5c0 .3-.2.5-.5.5h-1c-.3 0-.5-.2-.5-.5zM12 2.5v5c0 .3.2.5.5.5h5c.3 0 .5-.2.5-.5v-1c0-.3-.2-.5-.5-.5H14V2.5c0-.3-.2-.5-.5-.5h-1c-.3 0-.5.2-.5.5z" fill-rule="evenodd" clip-rule="evenodd"/></svg><svg viewBox="0 0 20 20" id="fullscreen-open" xmlns="http://www.w3.org/2000/svg"><path d="M7.5 2h-5c-.3 0-.5.2-.5.5v5c0 .3.2.5.5.5h1c.3 0 .5-.2.5-.5V4h3.5c.3 0 .5-.2.5-.5v-1c0-.3-.2-.5-.5-.5zM7.5 18h-5c-.3 0-.5-.2-.5-.5v-5c0-.3.2-.5.5-.5h1c.3 0 .5.2.5.5V16h3.5c.3 0 .5.2.5.5v1c0 .3-.2.5-.5.5zM12.5 18h5c.3 0 .5-.2.5-.5v-5c0-.3-.2-.5-.5-.5h-1c-.3 0-.5.2-.5.5V16h-3.5c-.3 0-.5.2-.5.5v1c0 .3.2.5.5.5zM12.5 2h5c.3 0 .5.2.5.5v5c0 .3-.2.5-.5.5h-1c-.3 0-.5-.2-.5-.5V4h-3.5c-.3 0-.5-.2-.5-.5v-1c0-.3.2-.5.5-.5z" fill-rule="evenodd" clip-rule="evenodd"/></svg><svg viewBox="0 0 20 20" id="hamburger" xmlns="http://www.w3.org/2000/svg"><path d="M18 16H2c-.6 0-1-.4-1-1s.4-1 1-1h16c.6 0 1 .4 1 1s-.4 1-1 1zM18 11H2c-.6 0-1-.4-1-1s.4-1 1-1h16c.6 0 1 .4 1 1s-.4 1-1 1zM18 6H2c-.6 0-1-.4-1-1s.4-1 1-1h16c.6 0 1 .4 1 1s-.4 1-1 1z"/></svg><svg viewBox="0 0 20 20" id="info" xmlns="http://www.w3.org/2000/svg"><path d="M17 1H3a2 2 0 00-2 2v14a2 2 0 002 2h14a2 2 0 002-2V3a2 2 0 00-2-2zm-6 15H9V8h2zM9 4h2v2H9z"/></svg><svg viewBox="0 0 68 22" id="logo-gmx" xmlns="http://www.w3.org/2000/svg"><path d="M60 10.4L65.9.6h-6l-3.1 5-3.3-5h-6.6l6.9 9.8-6.9 11h6.6l3.7-6.2 4.4 6.2h5.8l-7.4-11zM38.4.6l-4.5 11.1L29.7.6h-5.3l-3.5 20.8h5.4l1.8-12 4.8 12h2.2l5-12H40l1.5 12h5.4L43.8.6h-5.4zM11 9.8V14h4.4c-.2 2.4-2 3.6-4.3 3.6-3.5 0-5.4-3.2-5.4-6.5S7.4 4.6 11 4.6c2 0 3.8 1.3 4.4 3.3l5.1-2.1c-1.6-3.7-5.3-6-9.3-5.8C4.5 0 0 4.4 0 11.1 0 17.6 4.5 22 11 22c3.3.2 6.5-1.3 8.5-4 1.8-2.6 2-5.1 2.1-8.2H11z"/></svg><svg viewBox="0 0 98 56" id="logo-gmx-56" xmlns="http://www.w3.org/2000/svg"><defs><path id="bba" d="M4 0h360a4 4 0 014 4v627a4 4 0 01-4 4H4a4 4 0 01-4-4V4a4 4 0 014-4z"/><mask id="bbb" fill="#fff"><use fill-rule="evenodd" xlink:href="#bba"/></mask></defs><g fill="none" fill-rule="evenodd"><path d="M-334-112h767v860h-767z" fill="#fff"/><g transform="translate(-135 -24)"><use fill="#f1f4f9" xlink:href="#bba"/><use fill="#fff" xlink:href="#bba"/><g mask="url(#bbb)"><path d="M135 24h98v56h-98z"/><g fill="#1c449b"><path d="M151.287 50.085v5.63h6.291c-.314 3.179-2.87 4.788-6.212 4.788-5.072 0-7.824-4.35-7.824-8.627 0-4.204 2.633-8.699 7.706-8.699 3.106 0 5.347 1.755 6.41 4.387l7.313-2.853c-2.556-5.153-7.274-7.71-13.37-7.71-9.554 0-16.08 5.884-16.08 14.838 0 8.664 6.486 14.549 15.806 14.549 4.954 0 9.318-1.646 12.228-5.41 2.635-3.436 2.95-6.873 3.028-10.893zM165.475 65.549h7.723l2.494-15.978h.08l6.85 15.978h3.09l7.168-15.978h.08l2.178 15.978h7.761l-4.514-27.76h-7.723l-6.416 14.838-6.058-14.838h-7.644zM221.803 50.843l8.413-13.054h-8.592l-4.478 6.639-4.82-6.639H202.9l9.936 13.028-9.936 14.732h9.425l5.38-8.348 6.366 8.348h8.409z"/></g></g></g></g></svg><svg viewBox="0 0 89 32" id="logo-netid" xmlns="http://www.w3.org/2000/svg"><defs><path id="bca" d="M.139.053h11.956v13.991H.139z"/><path id="bcc" d="M.003.261h18.521v14.608H.003z"/><path id="bce" d="M0 .07h31.385v31.378H0z"/></defs><g fill="none" fill-rule="evenodd"><path fill="#878786" d="M43.438 22.887v-5.665c.02-1.501-.965-2.422-2.271-2.442-1.367 0-2.452 1.061-2.452 2.622v5.485h-2.21V16.04c0-1.14-.04-1.46-1.025-1.4v-1.422c1.406-.26 3.034-.34 3.034 1.501.543-1.22 2.03-1.681 3.296-1.681 2.632 0 3.838 1.801 3.838 4.183v5.665h-2.21zm6.511-5.965h5.346c.06-1.461-1.146-2.222-2.533-2.222-1.446 0-2.511.7-2.813 2.222m7.114 1.54h-7.154c0 1.762 1.386 2.803 3.155 2.803 1.206.06 2.371-.1 3.517-.6l.281 1.621c-1.125.5-2.432.82-3.657.82-3.196.06-5.547-1.981-5.446-5.243.06-3.223 2.391-4.844 5.024-4.844 3.396 0 4.923 2.241 4.28 5.444m5.487-5.204h3.356v1.561H62.55v4.344c0 2.462 1.187 2.621 3.176 1.92l.221 1.642c-3.315 1.021-5.547.26-5.547-3.523V14.82l-1.97-.14v-1.42h1.97l.22-2.983h1.93v2.982zM74.287 21.005v1.882h-6.793v-1.882h2.231V10.737h-2.05V8.876h6.431v1.861h-2.05v10.268z"/><g transform="translate(76.721 8.843)"><mask id="bcb" fill="#fff"><use xlink:href="#bca"/></mask><path fill="#878786" d="M5.183 11.922c2.914 0 4.581-2.242 4.581-4.884 0-2.642-1.688-4.884-4.561-4.884H2.47v9.768h2.713zM5.223.053c4.38 0 6.872 3.282 6.872 6.965s-2.451 7.026-6.872 7.026H.139V.054h5.084z" mask="url(#bcb)"/></g><g transform="translate(14.956 .015)"><mask id="bcd" fill="#fff"><use xlink:href="#bcc"/></mask><path fill="#76B72A" mask="url(#bcd)" d="M.003 9.076l2.018-1.962 3.802 3.787L16.569.261l1.955 1.899L5.763 14.869z"/></g><g transform="translate(0 .291)"><mask id="bcf" fill="#fff"><use xlink:href="#bce"/></mask><path fill="#878786" d="M30.414 8.593l-1.635 1.628c.93 3.074.721 5.478-2.519 8.705l-3.763 3.748L8.81 9.04l3.79-3.774c4.025-4.01 7.372-3.713 11.253-1.33l1.512-1.504C20.56-.833 16.026-1.034 11.108 3.865L0 14.928l16.587 16.52 11.107-11.063c4.106-4.089 4.422-7.65 2.72-11.792" mask="url(#bcf)"/></g></g></svg><svg viewBox="0 0 32 32" id="logo-webde-32" xmlns="http://www.w3.org/2000/svg"><path fill="#FFD800" d="M27.996 32H4.004A4.016 4.016 0 010 27.996V4.004A4.016 4.016 0 014.004 0h23.992A4.016 4.016 0 0132 4.004v23.992A4.016 4.016 0 0127.996 32z"/><path d="M6.032 12.767c.292.107.679-.087.96-.137.279-.048 1.42-.305 1.204-.045-.121.146-.434.147-.713.229-.387.114-1.008.178-1.032.676-.055 1.185 1.786.397 2.326.204 1.462-.509 3.139-.596 4.618-.844 1.642-.273 3.33-.298 4.987-.362 1.744-.067 3.621-.14 5.335.102a39 39 0 001.352.164c.402.041 1.25.411 1.608.241.325-.154.178-.538.346-.734.242-.282.719-.233.387-.837-.252-.459-1.172-.608-1.648-.515-.048-.29.174-.161.233-.312a.989.989 0 00-.057-.794c-.255-.439-1.47-.595-1.47-.594-2.912-.469-8.152-.975-13.73-.324-.926.108-2.55.223-3.498.608-.419.17-.413.174-.465.449-.05.391.138.847.608.749.901-.185 2.492-.443 2.948-.559 2.249-.573 9.737-.461 10.701-.232.596.127 3.87.235 3.949.834-7.64-.316-10.557-.313-17.418.502-.573.095-.917.22-1.37.373-.555.187-.932.873-.161 1.158zM16.135 8.03c.267.023 2.378.086 2.499-.739.069-.468-.394-1.228-.527-1.366-.175-.144-.561 1.117-.658-.124-.015-.202-.067-.515-.163-.707-.048-.096-.107-.166-.178-.166a.237.237 0 00-.117.041.705.705 0 00-.191.276c-.12.294-.172 1.433-.467 1.451-.321.021-.311-.729-.268-.946.007-.036-.001-.044-.015-.041-.031.009-.04.014-.065.023-.193.074-.413.298-.429.314-.302.31-.711 1.119-.504 1.491.214.383.857.473 1.083.493zm14.707 16.269a.796.796 0 00-.18-.409c-.398-.544-2.266-.908-2.267-.902a34.988 34.988 0 00-3.226-.528c.172-.816-.008-2.321-.012-2.844.024-.935.004-3.35-.066-3.961-.054-.574-.131-.825-.445-1.3-.226-.339-.295-.67-.815-.618-.474.047-.648.704-.567 1.104l.204.813c.085.168.314 5.438.263 5.897.005.222-.016.509-.023.752a79.261 79.261 0 00-4.001-.27l.057-.044c.685-.533.448-1.241.333-2.013-.156-1.235-.037-4.741-.184-5.163-.1-.33-.381-.521-.626-.774-.302-.311-.682-.406-1.03-.049-.342.31.086 4.736.11 6.681.031.407-.059.917.103 1.311-.133-.005-3.65-.079-3.945-.073.004-.069-.042-.156-.075-.223a4.201 4.201 0 01-.248-.789 8.156 8.156 0 01-.121-1.121c-.026-.804.048-3.292.138-3.943.1-.72.484-1.99-.764-1.71-.135.03-.796.112-.973.252-.205.162-.186.566-.194.79-.029.85-.123 3.526-.118 4.169.007.54.103 1.235.301 1.762.121.32.478.639.852.841-.687.019-1.348.041-1.583.054a68.412 68.412 0 00-2.915.214l-.011-.042c-.145-.447.063-2.294.466-5.758.097-.835-.05-.868-.558-1.339-.292-.27-.539-.453-1.046-.046-.322.258-.238.589-.293.962-.193 1.299-.473 3.339-.593 4.661-.034.365.017 1.2.111 1.707.009.024.005.051.017.076a84.59 84.59 0 00-1.581.229c-1.392.216-2.622.269-3.458.644-.513.232-.543.308-.664.496a.48.48 0 00-.064.221c-.001.014.01.199.025.254a.688.688 0 00.464.493c.064.02.451.052.492.056.934.094 1.448-.133 2.361-.493 4.523-1.804 17.466-1.258 20.317-.719 1.238.247 3.149.505 4.334 1.183.193.106.374.183.54.233.083.025.163.038.236.055a1.01 1.01 0 00.592-.059.495.495 0 00.252-.205 1.21 1.21 0 00.09-.278 1.975 1.975 0 00-.012-.237z" fill="#333"/></svg><svg viewBox="0 0 36 36" id="logo-webde-36" xmlns="http://www.w3.org/2000/svg"><g fill="none" fill-rule="evenodd"><rect fill="#ffd800" height="36" rx="4.5" width="36"/><path d="M8.118 11.055c-.764-.283-.39-.962.161-1.148.448-.152.79-.277 1.358-.37 6.801-.808 9.693-.812 17.267-.498-.078-.594-3.324-.7-3.915-.826-.956-.227-8.379-.338-10.608.23-.452.115-2.03.37-2.923.554-.466.096-.652-.355-.603-.743.052-.273.045-.276.461-.445.94-.38 2.55-.495 3.467-.602 5.53-.646 10.724-.144 13.611.32 0 0 1.204.154 1.458.59.14.24.14.572.056.787-.057.15-.278.022-.23.31.471-.093 1.383.055 1.633.51.329.598-.144.55-.383.829-.167.195-.021.575-.343.728-.355.168-1.196-.198-1.595-.24-.46-.048-.888-.098-1.34-.161-1.7-.24-3.56-.168-5.289-.101-1.643.063-3.316.088-4.943.358-1.467.246-3.129.332-4.58.837-.534.191-2.36.972-2.305-.202.024-.494.64-.558 1.023-.67.277-.082.588-.082.707-.227.214-.258-.917-.004-1.193.044-.279.05-.663.242-.952.136zm10.016-4.696c-.224-.02-.862-.109-1.074-.491-.205-.369.2-1.17.5-1.478.016-.016.234-.238.425-.31.024-.01.033-.015.064-.023.014-.003.022.005.014.04-.042.216-.052.96.267.938.293-.018.344-1.146.462-1.438.044-.107.13-.234.19-.273a.25.25 0 01.116-.04c.07 0 .13.07.177.165.095.19.146.5.162.7.096 1.23.478-.02.652.124.131.136.59.89.523 1.353-.12.818-2.213.756-2.478.733zm14.579 16.128c.01.068.015.197.008.234a1.22 1.22 0 01-.09.276.485.485 0 01-.249.204 1.02 1.02 0 01-.588.057c-.072-.017-.151-.03-.234-.055a2.81 2.81 0 01-.535-.23c-1.174-.673-3.068-.929-4.296-1.174-2.826-.534-15.657-1.076-20.14.714-.905.356-1.416.58-2.34.488-.042-.005-.426-.036-.489-.056a.677.677 0 01-.46-.489 1.954 1.954 0 01-.024-.251.487.487 0 01.064-.22c.12-.185.149-.26.658-.49.828-.372 2.048-.425 3.428-.639.566-.087 1.068-.16 1.567-.227-.011-.025-.008-.052-.016-.076-.093-.501-.144-1.33-.11-1.691.118-1.31.396-3.334.587-4.621.055-.37-.028-.698.29-.953.504-.403.749-.223 1.038.045.504.467.65.5.554 1.327-.4 3.434-.607 5.265-.463 5.708l.012.042c.858-.084 1.74-.147 2.89-.211.232-.014.887-.036 1.568-.054-.37-.2-.725-.516-.844-.834-.197-.523-.292-1.212-.299-1.747-.005-.638.088-3.291.117-4.133.008-.223-.011-.623.192-.784.175-.138.831-.22.965-.25 1.237-.277.857.983.758 1.696-.09.645-.163 3.111-.137 3.908.015.382.062.797.12 1.112.036.193.16.606.247.782.032.066.078.153.074.22.292-.005 3.78.068 3.911.073-.16-.39-.071-.896-.102-1.299-.023-1.928-.447-6.316-.108-6.623.345-.354.72-.26 1.02.05.243.25.523.438.622.766.146.418.027 3.893.182 5.118.115.765.35 1.467-.33 1.996l-.056.044c1.42.061 2.746.15 3.966.267.006-.24.027-.524.023-.746.05-.454-.177-5.679-.26-5.845l-.203-.806c-.08-.396.093-1.047.562-1.094.515-.051.584.277.808.613.312.471.388.72.441 1.289.07.604.089 3 .065 3.926.004.519.182 2.01.013 2.82 1.196.145 2.267.32 3.197.523.001-.006 1.853.355 2.248.894a.79.79 0 01.178.406zm-1.461 3.857v.899h-2.218v1.326h1.956v.9h-1.956V30.8h2.293v.9h-3.424v-5.357zm-7.187 4.457h.314c1.042 0 1.529-.569 1.529-1.752 0-1.192-.502-1.806-1.536-1.806h-.307zm-1.132-4.457h1.446c1.844 0 2.675.989 2.675 2.63 0 1.678-.944 2.726-2.787 2.726h-1.334zm-1.555 5.431c-.382 0-.576-.247-.576-.562 0-.352.247-.569.591-.569.33 0 .57.21.57.555 0 .336-.24.576-.585.576zm-4.023-.914h.622c.667 0 .959-.262.959-.741 0-.48-.315-.705-.891-.705h-.69zm0-2.262h.487c.554 0 .824-.24.824-.72 0-.471-.27-.696-.936-.696h-.375zm-1.131-2.255h1.79c1.192 0 1.768.487 1.768 1.386 0 .892-.719 1.199-.719 1.199s1.012.127 1.012 1.273c0 .9-.6 1.498-1.858 1.498h-1.993zm-.955 0v.899H13.05v1.326h1.956v.9H13.05V30.8h2.293v.9H11.92v-5.357zm-9.391 0l.607 4.083.891-4.083h1.161l.877 4.098.674-4.098h1.116l-1.1 5.356h-1.38l-.808-3.626-.802 3.626H5.736l-1.05-5.356z" fill="#333"/></g></svg><svg viewBox="0 0 40 40" id="logo-webde-40" xmlns="http://www.w3.org/2000/svg"><path fill="#FFD800" d="M35 40H5c-2.75 0-5-2.25-5-5V5c0-2.75 2.25-5 5-5h30c2.75 0 5 2.25 5 5v30c0 2.75-2.25 5-5 5z"/><path fill="#333" d="M9.02 12.283c.321.118.748-.096 1.057-.151.307-.053 1.564-.336 1.326-.05-.133.161-.478.162-.786.252-.427.126-1.111.196-1.137.745-.061 1.305 1.967.437 2.562.225 1.611-.561 3.457-.657 5.087-.929 1.809-.301 3.668-.329 5.493-.399 1.921-.074 3.989-.154 5.876.112.503.071.979.127 1.49.18.443.045 1.377.452 1.772.266.358-.169.196-.593.381-.809.266-.311.792-.257.426-.921-.278-.506-1.291-.67-1.816-.567-.052-.32.192-.178.256-.344a1.09 1.09 0 00-.063-.875c-.281-.484-1.619-.655-1.619-.655-3.208-.517-8.98-1.074-15.124-.357-1.019.119-2.808.246-3.852.669-.459.189-.453.193-.51.496-.055.431.152.932.67.825.992-.204 2.745-.488 3.247-.615 2.477-.631 10.725-.508 11.787-.256.656.14 4.263.258 4.349.918-8.416-.349-11.629-.345-19.185.553-.631.104-1.011.242-1.509.411-.611.207-1.027.962-.178 1.276zM20.149 7.066c.294.026 2.619.095 2.753-.814.076-.516-.434-1.353-.58-1.504-.193-.159-.618 1.23-.725-.137-.017-.223-.074-.568-.18-.779-.053-.105-.118-.183-.197-.183a.264.264 0 00-.128.045c-.067.044-.163.185-.211.304-.132.324-.189 1.578-.514 1.598-.354.023-.343-.803-.295-1.043.008-.039-.001-.048-.017-.045-.034.009-.044.015-.071.025-.212.082-.454.328-.472.346-.332.341-.783 1.232-.555 1.642.234.424.943.522 1.192.545zm16.199 17.92a.88.88 0 00-.198-.451c-.438-.599-2.496-1-2.497-.994a38.868 38.868 0 00-3.553-.582c.189-.899-.009-2.557-.013-3.133.026-1.029.005-3.69-.073-4.362-.059-.632-.144-.908-.49-1.432-.248-.374-.325-.738-.898-.681-.522.052-.714.776-.624 1.216l.224.895c.094.185.346 5.99.289 6.495.005.245-.018.561-.025.828a86.769 86.769 0 00-4.407-.297l.062-.049c.755-.587.494-1.367.367-2.217-.172-1.361-.041-5.222-.203-5.687-.11-.364-.42-.574-.69-.852-.333-.343-.751-.448-1.134-.054-.377.341.094 5.217.121 7.359.034.448-.066 1.011.113 1.444-.146-.005-4.02-.087-4.345-.08.004-.076-.047-.172-.083-.245a4.641 4.641 0 01-.274-.869 9.23 9.23 0 01-.134-1.235c-.029-.886.053-3.626.152-4.343.111-.793.533-2.191-.842-1.884-.149.033-.877.124-1.072.277-.226.178-.204.624-.213.87-.033.936-.136 3.884-.13 4.593.007.595.113 1.36.332 1.941.133.353.527.704.938.926a98.41 98.41 0 00-1.744.059 75.437 75.437 0 00-3.21.235l-.012-.046c-.16-.493.07-2.527.513-6.342.107-.92-.055-.956-.615-1.475-.321-.298-.594-.498-1.152-.051-.355.284-.262.649-.323 1.059-.212 1.431-.521 3.678-.653 5.134-.037.402.019 1.322.122 1.88.009.026.005.056.018.084-.554.074-1.113.156-1.742.252-1.533.238-2.888.296-3.809.71-.565.255-.598.34-.731.546a.527.527 0 00-.071.243c-.001.016.011.219.027.279a.753.753 0 00.511.542c.07.022.496.058.542.062 1.028.104 1.595-.147 2.601-.543 4.982-1.988 19.239-1.386 22.379-.792 1.364.272 3.469.556 4.773 1.303.213.116.412.201.595.257.091.028.179.041.26.06.2.047.413.004.449-.003.071-.014.141-.035.204-.061a.543.543 0 00.277-.226c.035-.068.078-.198.099-.306a1.298 1.298 0 00-.008-.257zM6.531 29.271H5.207l1.165 5.952h1.532l.891-4.029.899 4.029h1.532l1.224-5.952h-1.24l-.749 4.553-.974-4.553h-1.29l-.991 4.537-.675-4.537zm10.434 0h-3.721v5.952h3.804v-.999h-2.547v-1.482h2.173v-.999h-2.173V30.27h2.464v-.999zm1.062 0v5.952h2.214c1.399 0 2.065-.666 2.065-1.665 0-1.274-1.124-1.415-1.124-1.415s.799-.341.799-1.332c0-.999-.641-1.54-1.965-1.54h-1.989zm1.257 2.506v-1.573h.416c.741 0 1.041.25 1.041.774 0 .533-.3.799-.916.799h-.541zm0 2.513v-1.607h.766c.641 0 .991.25.991.782 0 .533-.325.824-1.065.824h-.692v.001zm4.47 1.016c.383 0 .649-.266.649-.641 0-.383-.266-.616-.633-.616-.383 0-.658.241-.658.633.001.349.217.624.642.624zm1.728-6.035v5.952h1.482c2.048 0 3.097-1.165 3.097-3.03 0-1.823-.924-2.922-2.972-2.922h-1.607zm1.257 4.953V30.27h.341c1.149 0 1.706.683 1.706 2.006 0 1.315-.541 1.948-1.698 1.948h-.349zm7.985-4.953h-3.721v5.952h3.804v-.999H32.26v-1.482h2.173v-.999H32.26V30.27h2.464v-.999z"/></svg><svg viewBox="0 0 56 56" id="logo-webde-56" xmlns="http://www.w3.org/2000/svg"><path fill="#FFD800" d="M49 56H7c-3.85 0-7-3.15-7-7V7c0-3.85 3.15-7 7-7h42c3.85 0 7 3.15 7 7v42c0 3.85-3.15 7-7 7z"/><path fill="#333" d="M12.628 17.196c.45.166 1.048-.134 1.481-.211.43-.075 2.19-.47 1.857-.069-.187.226-.67.227-1.1.353-.597.176-1.555.275-1.592 1.043-.085 1.827 2.755.612 3.587.315 2.255-.785 4.84-.92 7.122-1.301 2.532-.421 5.135-.46 7.691-.558 2.69-.103 5.584-.216 8.227.157.704.099 1.37.177 2.086.252.62.064 1.928.633 2.48.372.501-.237.274-.83.533-1.133.373-.435 1.108-.36.597-1.29-.389-.708-1.808-.938-2.542-.794-.073-.447.269-.249.359-.481.13-.335.13-.852-.088-1.224-.394-.677-2.266-.917-2.267-.916-4.491-.723-12.572-1.503-21.173-.5-1.427.167-3.931.345-5.393.937-.647.262-.637.268-.717.692-.077.603.213 1.306.938 1.156 1.389-.286 3.843-.683 4.546-.862 3.469-.883 15.015-.711 16.502-.358.919.196 5.968.362 6.089 1.286-11.782-.488-16.28-.483-26.859.774-.884.146-1.415.339-2.112.575-.859.289-1.44 1.346-.252 1.785zM28.208 9.892c.412.036 3.667.133 3.854-1.14.106-.722-.608-1.894-.813-2.106-.27-.223-.865 1.722-1.015-.191-.024-.312-.104-.795-.251-1.09-.074-.148-.165-.256-.275-.256a.388.388 0 00-.18.062c-.094.061-.228.259-.295.425-.184.454-.265 2.209-.72 2.238-.495.032-.48-1.124-.414-1.46.011-.055-.001-.068-.023-.063-.047.013-.062.022-.1.035-.297.114-.636.459-.661.484-.466.478-1.096 1.725-.778 2.299.331.593 1.323.732 1.671.763zM50.887 34.98c-.035-.249-.108-.402-.277-.631-.613-.839-3.495-1.401-3.496-1.391-1.447-.316-3.114-.588-4.975-.815.265-1.258-.012-3.579-.019-4.386.037-1.441.007-5.166-.102-6.108-.083-.885-.201-1.272-.686-2.004-.348-.523-.455-1.034-1.257-.953-.73.073-.999 1.086-.874 1.702l.314 1.253c.131.259.485 8.386.405 9.094.007.343-.025.785-.035 1.159-1.897-.18-3.96-.319-6.169-.416l.087-.069c1.057-.822.691-1.914.514-3.104-.241-1.905-.057-7.311-.284-7.962-.154-.51-.588-.804-.966-1.193-.466-.48-1.051-.627-1.588-.076-.527.478.132 7.304.169 10.302.048.628-.092 1.415.158 2.022-.204-.008-5.628-.121-6.084-.113.006-.106-.065-.241-.116-.344-.136-.275-.328-.917-.383-1.217a12.788 12.788 0 01-.187-1.729c-.041-1.24.074-5.076.212-6.08.155-1.11.746-3.068-1.179-2.637-.208.047-1.228.173-1.501.388-.317.249-.286.873-.298 1.218-.045 1.31-.19 5.438-.182 6.43.01.833.159 1.905.464 2.718.186.494.737.986 1.313 1.297-1.059.029-2.079.063-2.441.083-1.788.1-3.159.199-4.495.33l-.017-.064c-.224-.69.098-3.538.718-8.879.15-1.288-.077-1.339-.861-2.065-.45-.417-.831-.698-1.613-.071-.496.398-.367.909-.452 1.483-.297 2.003-.73 5.149-.914 7.188-.052.563.027 1.851.171 2.632.013.037.008.078.026.118-.776.104-1.557.218-2.438.353-2.146.333-4.043.415-5.332.993-.792.357-.837.475-1.024.764a.752.752 0 00-.099.341c-.002.022.016.307.038.391a1.056 1.056 0 00.715.76c.098.031.695.081.758.087 1.44.145 2.233-.205 3.641-.76 6.975-2.783 26.934-1.94 31.33-1.109 1.909.38 4.856.778 6.683 1.825.298.163.577.282.832.359.128.039.251.058.364.085.28.066.578.006.628-.004.1-.019.197-.048.285-.086.177-.075.32-.184.388-.316.049-.095.11-.278.139-.429a1.518 1.518 0 00-.008-.364zM9.143 40.979H7.29l1.632 8.332h2.144l1.247-5.64 1.259 5.64h2.144l1.713-8.332h-1.736l-1.049 6.375-1.364-6.375h-1.806l-1.387 6.351-.944-6.351zm14.609 0h-5.209v8.332h5.326v-1.399h-3.566v-2.074h3.042V44.44h-3.042v-2.063h3.45v-1.398h-.001zm1.485 0v8.332h3.1c1.958 0 2.89-.932 2.89-2.331 0-1.783-1.573-1.981-1.573-1.981s1.119-.478 1.119-1.865c0-1.399-.897-2.156-2.75-2.156h-2.786v.001zm1.76 3.508v-2.203h.583c1.037 0 1.457.349 1.457 1.084 0 .746-.42 1.119-1.282 1.119h-.758zm0 3.52v-2.249h1.072c.897 0 1.387.35 1.387 1.095 0 .746-.454 1.154-1.492 1.154h-.967zm6.258 1.421c.536 0 .909-.373.909-.897 0-.536-.373-.862-.886-.862-.536 0-.921.338-.921.886.001.489.304.873.898.873zm2.419-8.449v8.332h2.074c2.867 0 4.335-1.631 4.335-4.242 0-2.552-1.294-4.091-4.16-4.091h-2.249v.001zm1.76 6.934v-5.536h.478c1.608 0 2.389.956 2.389 2.808 0 1.841-.757 2.727-2.377 2.727h-.49v.001zm11.18-6.934h-5.209v8.332h5.326v-1.399h-3.566v-2.074h3.042V44.44h-3.042v-2.063h3.449v-1.398z"/></svg><svg viewBox="0 0 20 20" id="mail-function" xmlns="http://www.w3.org/2000/svg"><path d="M20 15.1V5.5v-.2L15 10l5 5.1zM13.8 11.1l-2.5 2.3c-.8.7-2 .7-2.7 0l-2.5-2.3L.5 17c.5.6 1.2 1 2 1h15c.8 0 1.6-.4 2-1l-5.7-5.9z"/><path d="M9.5 12c.1.1.3.2.5.2s.4-.1.5-.2l8.9-8.2c-.5-.5-1.2-.8-1.9-.8h-15c-.7 0-1.4.3-1.9.8L9.5 12zM4.9 10L0 5.3V15.1L4.9 10z"/></svg><svg viewBox="0 0 20 20" id="mailbox" xmlns="http://www.w3.org/2000/svg"><path d="M19.8 8.8l-3-5.6c-.2-.4-.6-.7-1.5-.7H4.6c-.9 0-1.3.3-1.5.7l-3 5.6c0 .3-.1.6-.1 1V15c0 1.4 1.1 2.5 2.5 2.5h15c1.4 0 2.5-1.1 2.5-2.5V9.8c0-.3-.1-.7-.2-1zm-2.4.4h-1.6c-.5 0-.9.4-.9.9 0 1-.8 1.9-1.9 1.9H6.9c-1 0-1.9-.8-1.9-1.9 0-.5-.4-.9-.9-.9H2.6c-.3 0-.5-.1-.4-.2l2-4.8c.1-.1.2-.2.4-.2h10.7c.2 0 .4.1.4.1l2 4.8c.1.2 0 .3-.3.3z" fill-rule="evenodd" clip-rule="evenodd"/></svg><svg viewBox="0 0 115 30" id="mailcom_115x30" xmlns="http://www.w3.org/2000/svg"><path d="M115 9.953v9.738h-2.504V9.846c0-1.97-1.306-3.447-3.318-3.447-2.011 0-3.318 1.478-3.318 3.447v9.845h-2.504V9.846c0-1.97-1.305-3.447-3.317-3.447-2.012 0-3.318 1.478-3.318 3.447v9.845h-2.503V4.088h5.842c2.076 0 3.66.985 4.559 2.504.92-1.54 2.505-2.504 4.58-2.504 3.447 0 5.801 2.547 5.801 5.865zM60.764 19.69h2.504v-2.504h-2.504zm24.87-2.033c-2.804 0-5.115-2.483-5.115-5.522 0-3.103 2.31-5.65 5.116-5.65 2.846 0 5.136 2.547 5.136 5.65 0 3.04-2.29 5.522-5.136 5.522zm0-13.57c-4.301 0-7.64 3.596-7.64 8.027 0 4.366 3.339 7.94 7.64 7.94 4.346 0 7.641-3.574 7.641-7.94.022-4.41-3.295-8.027-7.64-8.027zm-20.226 8.006c0 3.081 2.312 5.542 5.116 5.542 2.012 0 3.574-1.026 4.409-2.697h2.696c-1.005 3.083-3.702 5.073-7.084 5.073-4.194 0-7.62-3.552-7.62-7.94 0-4.41 3.426-8.006 7.62-8.006 3.403 0 6.057 2.013 7.084 5.074h-2.696c-.856-1.648-2.418-2.698-4.41-2.698-2.803.043-5.115 2.591-5.115 5.652zM48.65 2.504h2.504V0H48.65zm0 17.188h2.504V4.474H48.65zm10.808-2.355v2.354c-3.575.407-6.035-1.69-6.035-5.543V0h2.482v14.062c.021 2.675 1.67 3.36 3.553 3.275zm-20.633.406c-2.825 0-5.136-2.439-5.136-5.65 0-3.189 2.31-5.694 5.136-5.694 2.783 0 5.137 2.548 5.137 5.695 0 3.145-2.333 5.649-5.137 5.649zM22.495 0c4.13 0 7.491 3.36 7.47 7.492v22.494L2.803 23.201A3.768 3.768 0 010 19.563V0zm16.33 4.088c4.323 0 7.62 3.532 7.642 8.006v7.597h-2.42v-2.354c-1.199 1.648-3.103 2.739-5.265 2.739-4.195 0-7.597-3.424-7.597-7.982 0-4.581 3.424-8.006 7.64-8.006zm-28.466.428H3.745v15.047h3.768V10.98c0-1.647 1.155-2.783 2.846-2.783 2.483 0 2.74 1.948 2.74 2.783v8.583h3.766V10.98c0-1.647 1.199-2.783 2.847-2.783 2.483 0 2.76 1.948 2.76 2.783v8.583h3.768l-.021-8.497c0-3.831-2.419-6.55-6.528-6.55-1.905 0-3.553.793-4.666 2.076-1.05-1.283-2.676-2.076-4.666-2.076z" fill-rule="evenodd"/></svg><svg viewBox="0 0 16 16" id="mailcom_16" xmlns="http://www.w3.org/2000/svg"><path d="M12.011 0c2.206 0 4 1.793 3.989 3.997V16L1.497 12.38A2.01 2.01 0 010 10.438V0zm-6.48 2.41H2v8.028H4.01v-4.58c0-.878.617-1.484 1.52-1.484 1.326 0 1.463 1.04 1.463 1.485v4.58h2.011v-4.58c0-.88.64-1.485 1.52-1.485 1.326 0 1.475 1.04 1.475 1.485v4.58h2.011L14 5.904c0-2.045-1.292-3.495-3.486-3.495-1.017 0-1.897.423-2.491 1.107-.56-.684-1.429-1.107-2.492-1.107z" fill-rule="evenodd"/></svg><svg viewBox="0 0 28 28" id="mailcom_28" xmlns="http://www.w3.org/2000/svg"><path d="M21.02 0c3.86 0 7 3.138 6.98 6.995V28L2.62 21.665A3.52 3.52 0 010 18.267V0zM9.68 4.217H3.5v14.05h3.52v-8.014c0-1.538 1.08-2.599 2.66-2.599 2.32 0 2.56 1.82 2.56 2.599v8.014h3.52v-8.014c0-1.538 1.12-2.599 2.66-2.599 2.32 0 2.58 1.82 2.58 2.599v8.014h3.52l-.02-7.934c0-3.578-2.26-6.116-6.1-6.116-1.78 0-3.32.74-4.36 1.938-.98-1.198-2.5-1.938-4.36-1.938z" fill-rule="evenodd"/></svg><svg viewBox="0 0 20 20" id="next" xmlns="http://www.w3.org/2000/svg"><path d="M14.5 10c0 .3-.1.5-.3.7l-7 7c-.4.4-1 .4-1.4 0-.4-.4-.4-1 0-1.4l6.3-6.3-6.3-6.3c-.4-.4-.4-1 0-1.4.4-.4 1-.4 1.4 0l7 7c.2.2.3.5.3.7z"/></svg><svg viewBox="0 0 20 20" id="notification" xmlns="http://www.w3.org/2000/svg"><path fill="#418400" d="M10 19.5C4.8 19.5.5 15.2.5 10S4.8.5 10 .5s9.5 4.3 9.5 9.5-4.3 9.5-9.5 9.5z"/><path fill="#fff" d="M10 1c5 0 9 4 9 9s-4 9-9 9-9-4-9-9 4-9 9-9m0-1C4.5 0 0 4.5 0 10s4.5 10 10 10 10-4.5 10-10S15.5 0 10 0z"/><g><text transform="translate(5.454 15.196)" fill="#fff" font-family="Verdana" font-size="14">2</text></g></svg><svg viewBox="0 0 24 24" id="ok" xmlns="http://www.w3.org/2000/svg"><path d="M12 2.25A9.75 9.75 0 0121.75 12 9.75 9.75 0 0112 21.75 9.75 9.75 0 012.25 12 9.75 9.75 0 0112 2.25zm-1.856 14.788l8.308-8.309-1.767-1.767-6.541 6.541-2.829-2.829-1.767 1.768 4.596 4.596z"/></svg><svg viewBox="0 0 20 20" id="outbox" xmlns="http://www.w3.org/2000/svg"><g fill-rule="evenodd" clip-rule="evenodd"><path d="M6.1 5.1c.2.2.5.2.6 0l2.6-2.6v9.2c0 .3.2.5.5.5h.5c.3 0 .5-.2.5-.5V2.6l2.6 2.6c.2.2.5.2.6 0l.4-.4c.2-.2.2-.5 0-.6L10.8.6l-.4-.4c-.2-.2-.3-.2-.4-.2-.1 0-.2 0-.3.1l-.4.4-3.6 3.6c-.2.2-.2.5 0 .6l.4.4z"/><path d="M19.8 13.2l-3-5.6c-.2-.4-.6-.7-1.5-.7h-1.9v1.5h2c.2 0 .4.1.4.1l2 4.9c.1.2-.1.3-.4.3h-1.6c-.5 0-.9.4-.9.9 0 1-.8.9-1.9.9H6.9c-1 0-1.9.2-1.9-.9 0-.5-.4-.9-.9-.9H2.6c-.3 0-.4-.1-.4-.3l2-4.9c0-.1.2-.1.4-.1h2V6.9h-2c-.9 0-1.3.3-1.5.7l-3 5.6c-.1.3-.2.7-.2 1v3.3C0 18.9 1.1 20 2.5 20h15c1.4 0 2.5-1.1 2.5-2.5v-3.3c0-.3-.1-.7-.2-1z"/></g></svg><svg viewBox="0 0 20 20" id="overflow-horizontal" xmlns="http://www.w3.org/2000/svg"><path d="M16.3 8h-1.6c-.4 0-.7.3-.7.7v1.6c0 .4.3.7.7.7h1.6c.4 0 .7-.3.7-.7V8.7c0-.4-.3-.7-.7-.7zM10.3 8H8.7c-.4 0-.7.3-.7.7v1.6c0 .4.3.7.7.7h1.6c.4 0 .7-.3.7-.7V8.7c0-.4-.3-.7-.7-.7zM4.3 8H2.7c-.4 0-.7.3-.7.7v1.6c0 .4.3.7.7.7h1.6c.4 0 .7-.3.7-.7V8.7c0-.4-.3-.7-.7-.7z"/></svg><svg viewBox="0 0 20 20" id="overflow-vertical" xmlns="http://www.w3.org/2000/svg"><path d="M8 2.7v1.6c0 .4.3.7.7.7h1.6c.4 0 .7-.3.7-.7V2.7c0-.4-.3-.7-.7-.7H8.7c-.4 0-.7.3-.7.7zM8 8.7v1.6c0 .4.3.7.7.7h1.6c.4 0 .7-.3.7-.7V8.7c0-.4-.3-.7-.7-.7H8.7c-.4 0-.7.3-.7.7zM8 14.7v1.6c0 .4.3.7.7.7h1.6c.4 0 .7-.3.7-.7v-1.6c0-.4-.3-.7-.7-.7H8.7c-.4 0-.7.3-.7.7z"/></svg><svg viewBox="0 0 20 20" id="password-eye" xmlns="http://www.w3.org/2000/svg"><path class="bscls-1" d="M19.73 8.91A11.51 11.51 0 0010 3.14 11.19 11.19 0 00.25 9a2.31 2.31 0 000 2A11.19 11.19 0 0010 16.86a11.51 11.51 0 009.77-5.77 2.31 2.31 0 00-.04-2.18zM10 14a4 4 0 114-4 4 4 0 01-4 4z"/></svg><svg viewBox="0 0 24 24" id="print" xmlns="http://www.w3.org/2000/svg"><path d="M20 9a1 1 0 011 1v7a1 1 0 01-1 1h-2v2a1 1 0 01-1 1H7a1 1 0 01-1-1v-2H4a1 1 0 01-1-1v-7a1 1 0 011-1zM8 19.5h8V14H8zM5 12h2v-1H5zm11-4H8V4c0-.55.45-1 1-1h6c.55 0 1 .45 1 1z" fill-rule="evenodd"/></svg><svg viewBox="0 0 20 20" id="priority-high" xmlns="http://www.w3.org/2000/svg"><path d="M8.2 17.2c0-1.1.8-1.8 1.9-1.8 1 0 1.8.7 1.8 1.8s-.8 1.8-1.8 1.8c-1.3 0-1.9-.8-1.9-1.8zm3.3-3.9h-3L8.2 1h3.6l-.3 12.3z"/></svg><svg viewBox="0 0 20 20" id="priority-low" xmlns="http://www.w3.org/2000/svg"><path d="M8.8 1.8v12.7L6 11.7c-.3-.3-.8-.3-1.1 0l-.6.6c-.3.3-.3.8 0 1.1L8.9 18l.6.6c.1.3.3.4.5.4s.4-.1.6-.2l.6-.6 4.6-4.6c.3-.3.3-.8 0-1.1l-.6-.6c-.3-.3-.8-.3-1.1 0l-2.8 2.8V1.8c0-.4-.4-.8-.8-.8h-1c-.4 0-.7.4-.7.8z" fill-rule="evenodd" clip-rule="evenodd"/></svg><svg viewBox="0 0 300 150" id="qr-code-frame" xmlns="http://www.w3.org/2000/svg"><g fill-rule="evenodd"><path d="M2 2v26.313H0V0h28.23v2H2zm135.583 109.688h2V140h-28.23v-2h26.23v-26.312zm0-109.688h-26.23V0h28.23v28.313h-2V2zM2 138h26.23v2H0v-28.312h2V138z" stroke-width="2"/><path d="M138.756 43.721v52.557l81.04-61.401-3.714-7.667z" opacity=".06" fill-rule="nonzero"/><path d="M244.912 5.886l-47.857 8.464c-2.909.515-4.85 3.296-4.338 6.213l16.27 92.554c.514 2.917 3.286 4.865 6.195 4.35l47.857-8.463c2.908-.514 4.85-3.297 4.336-6.213l-16.27-92.554a5.352 5.352 0 00-6.193-4.351z"/><g fill="#fff"><path d="M237.815 102.559a3.837 3.837 0 00-3.102 4.445 3.826 3.826 0 004.431 3.11 3.836 3.836 0 003.103-4.444 3.83 3.83 0 00-4.432-3.111zM197.615 19.704l14.941 84.987 48.594-8.595-14.941-84.987zM225.082 11.34l-7.158 1.266a.96.96 0 00.333 1.89l7.157-1.266a.96.96 0 00-.332-1.89z"/><path d="M225.082 11.34l-7.158 1.266a.96.96 0 00.333 1.89l7.157-1.266a.96.96 0 00-.332-1.89z"/></g><path d="M231.472 44.95l.315 1.796-1.791.317.316 1.797-1.791.316-.315-1.796-1.792.317.947 5.389 1.792-.317.316 1.797 1.79-.317-.947-5.39 1.79-.317.949 5.39-1.791.317.316 1.796-3.583.633.316 1.797-1.79.317.63 3.593-1.79.317-.317-1.797-1.79.317.631 3.593-7.165 1.267 1.58 8.983 8.955-1.585-.315-1.795 1.791-.318-.316-1.796 5.374-.95-.317-1.797 1.79-.316.317 1.796 1.791-.317-1.263-7.186-1.792.317.633 3.593-5.374.95.316 1.797-1.791.316.316 1.797-1.791.317-.316-1.797 1.79-.317-.315-1.796-1.791.317-.316-1.797 1.792-.317-.317-1.796 1.792-.317-.632-3.593 1.79-.316.317 1.796 1.79-.317-.315-1.796 1.791-.317-.631-3.594 1.79-.316.317 1.797 1.79-.317-.316-1.797 5.374-.95-1.58-8.982zm1.685 1.183l6.09-1.077 1.073 6.108-6.09 1.077zm-14.753 21.133l6.09-1.078 1.073 6.109-6.09 1.077zm9.486-21.684l.316 1.798 1.79-.317-.315-1.797zm-3.583.635l.316 1.796 1.79-.316-.314-1.797zm-10.746 1.9l1.579 8.982 8.955-1.583-.315-1.797 1.79-.316-.63-3.593-1.793.316-.63-3.592zm1.685 1.184l6.09-1.077 1.074 6.107-6.09 1.077zm19.913-1.762l.473 2.695 2.687-.476-.474-2.694zm-17.911 3.168l.474 2.694 2.687-.475-.475-2.694zm19.7 4.388l.316 1.796-1.792.318.316 1.795 1.792-.317-.316-1.796 1.79-.317.317 1.797 1.791-.316-.315-1.798 1.79-.316-.315-1.796zm-11.061.104l.315 1.796 1.791-.317-.316-1.796zm-3.267 2.43l.316 1.796-1.79.317.315 1.797 1.79-.317-.315-1.797 1.79-.316-.315-1.797zm-7.164 1.267l.948 5.39 5.373-.951-.316-1.796-3.583.633-.315-1.796 1.79-.317-.315-1.797zm16.75.742l.317 1.797-1.791.316.315 1.797 1.792-.317-.316-1.796 1.79-.317-.315-1.796zm7.48.53l.316 1.795-1.79.317.316 1.797 1.79-.316-.316-1.798 1.792-.316.316 1.797 1.79-.317-.63-3.593zm-12.22 4.013l.315 1.797 1.79-.317-.314-1.796zm11.377 1.693l.316 1.796-1.791.317.316 1.797-1.791.316.316 1.797 1.79-.317-.315-1.796 1.791-.318-.316-1.796 3.582-.633.317 1.797-1.792.316.316 1.797 3.582-.635-.947-5.389zm-18.437 2.797l.474 2.695 2.687-.475-.475-2.694zm10.113 2.38l.316 1.796 3.583-.633-.316-1.797z"/><path d="M210.277 46.244l1.137 6.467m-1.16-6.602l6.447-1.14m26.015-4.601l-6.448 1.14m6.582-1.164l1.138 6.467m-28.074 31.5l-1.137-6.467m1.161 6.601l6.447-1.14m26.047-4.421l-6.448 1.14m6.583-1.164l-1.138-6.467" stroke="#979797" stroke-linecap="square"/></g></svg><svg viewBox="0 0 20 20" id="refresh" xmlns="http://www.w3.org/2000/svg"><path d="M1 9.064l.003-.082v-.07L1 9.064zM18.115 2.157L16.473 3.8A8.943 8.943 0 009.969 1C4.655 1 1.057 5.572 1.003 9.108v.101c0 .44.356.797.796.797h.896c.44 0 .797-.357.796-.797v-.273c.33-2.515 2.846-5.445 6.478-5.445 1.871 0 3.558.798 4.741 2.071l-1.559 1.559a.519.519 0 00.366.885h4.754c.397 0 .729-.365.729-.761V2.523a.518.518 0 00-.885-.366zM18.201 9.995h-.896a.796.796 0 00-.796.797v.273c-.33 2.515-2.846 5.445-6.478 5.445a6.456 6.456 0 01-4.741-2.071l1.559-1.559a.519.519 0 00-.366-.885H1.728c-.396-.001-.728.364-.728.76v4.722c0 .462.558.693.885.366L3.527 16.2a8.945 8.945 0 006.504 2.8c5.314 0 8.911-4.572 8.966-8.108v-.101a.795.795 0 00-.796-.796zM18.997 10.962L19 10.81l-.003.082v.07z"/></svg><svg viewBox="0 0 20 20" id="reply" xmlns="http://www.w3.org/2000/svg"><path d="M18 15.1c0-4.2-3.3-7.7-7.5-7.8H6.2l2.6-2.6c.2-.3.2-.8-.1-1.1L8.1 3c-.3-.3-.7-.3-1 0L2.8 7.3l-.6.6c-.1.2-.2.3-.2.5s.1.4.2.5l.6.6 4.3 4.3c.3.3.8.3 1.1 0l.6-.6c.3-.3.3-.8 0-1.1L6.2 9.6h4c3.1 0 5.5 2.5 5.5 5.5v1.3c0 .4.3.7.7.7h.8c.4 0 .7-.3.7-.7l.1-1.3z" fill-rule="evenodd" clip-rule="evenodd"/></svg><svg viewBox="0 0 20 20" id="replyall" xmlns="http://www.w3.org/2000/svg"><g fill-rule="evenodd" clip-rule="evenodd"><path d="M20 15.1c0-4.2-3.3-7.7-7.5-7.8h-3L12 4.7c.3-.3.3-.8 0-1.1l-.6-.6c-.3-.3-.8-.3-1.1 0L6.1 7.3l-.6.6c-.1.2-.2.3-.2.5s.1.4.2.5l.6.6 4.3 4.3c.3.3.8.3 1.1 0l.6-.6c.3-.3.3-.8 0-1.1L9.5 9.6h2.7c3.1 0 5.5 2.5 5.5 5.5v1.3c0 .4.3.7.7.7h.8c.4 0 .7-.3.7-.7l.1-1.3z"/><path d="M3.9 7.5l2.8-2.8c.3-.3.3-.8 0-1.1L6.1 3c-.3-.3-.7-.3-1 0L.8 7.3l-.6.6c-.1.2-.2.3-.2.5s.1.4.2.5l.6.6 4.3 4.3c.3.3.8.3 1.1 0l.6-.6c.3-.3.3-.8 0-1.1L3.9 9.3c-.5-.5-.5-1.3 0-1.8z"/></g></svg><svg viewBox="0 0 20 20" id="scheduled" xmlns="http://www.w3.org/2000/svg"><path d="M10 1c-5 0-9 4-9 9s4 9 9 9 9-4 9-9-4-9-9-9zm0 16.1c-3.9 0-7.1-3.2-7.1-7.1 0-3.9 3.2-7 7.1-7 3.9 0 7.1 3.1 7.1 7s-3.2 7.1-7.1 7.1z"/><path d="M13.5 9.7h-2.7V5.8c0-.3-.3-.6-.6-.6h-.7c-.3 0-.6.3-.6.6v5.3c0 .2.1.3.2.4.1.1.3.2.4.2h4c.3 0 .6-.3.6-.6v-.7c.1-.5-.2-.7-.6-.7z"/></svg><svg viewBox="0 0 20 20" id="search" xmlns="http://www.w3.org/2000/svg"><path d="M17.587 15.61l-2.831-2.837a6.933 6.933 0 10-1.967 1.988l2.82 2.827a1.4 1.4 0 001.978 0 1.4 1.4 0 000-1.978zM6.305 12.616a4.5 4.5 0 115.281 0 4.509 4.509 0 01-5.281 0z"/></svg><svg viewBox="0 0 20 20" id="sent" xmlns="http://www.w3.org/2000/svg"><g fill-rule="evenodd" clip-rule="evenodd"><path d="M19.7.1c-.1-.1-.3-.1-.5-.1L.5 8.3c-.2.1-.3.3-.3.4 0 .2.1.3.2.4l6.7 3.5 3.5 6.6c.1.1.2.2.4.2s.3-.1.4-.3L19.8.5s0-.2-.1-.4zm-2.8 3.2L9 12c-.1.1-.4.1-.4-.1-.1-.2-.2-.4-.3-.5-.1-.1-.3-.2-.5-.3-.2-.1-.2-.3-.1-.5l8.7-7.8c.3-.1.7.3.5.5z"/><path d="M4 12.6l-.3 2.2c0 1.2 0 1.2 1.4 1.2l1.9-.3-1.1-2L4 12.6z"/></g></svg><svg viewBox="0 0 24 24" id="settings" xmlns="http://www.w3.org/2000/svg"><path d="M15.775 5.13l1.576-.891a1 1 0 011.203.167l1.053 1.066a1 1 0 01.171 1.174l-.893 1.671a1 1 0 00.595 1.43l1.806.54a1 1 0 01.714.958v1.528a1 1 0 01-.692.951l-1.876.607a1 1 0 00-.563 1.444l.892 1.576a1 1 0 01-.167 1.203l-1.067 1.054a1 1 0 01-1.172.172l-1.68-.894a1 1 0 00-1.428.598l-.535 1.8a1 1 0 01-.958.716h-1.527a1 1 0 01-.951-.692l-.607-1.876a1 1 0 00-1.444-.563l-1.576.892a1 1 0 01-1.203-.167l-1.053-1.066a1 1 0 01-.171-1.174l.893-1.671a1 1 0 00-.595-1.43l-1.806-.54A1 1 0 012 12.755v-1.528a1 1 0 01.692-.951l1.876-.607a1 1 0 00.563-1.444l-.892-1.576a1 1 0 01.167-1.203l1.085-1.073a1 1 0 011.182-.166l1.64.894A1 1 0 009.75 4.51l.537-1.796A1 1 0 0111.245 2h1.528a1 1 0 01.951.692l.607 1.876a1 1 0 001.444.563zM12 16a4 4 0 100-8 4 4 0 000 8z"/></svg><svg viewBox="0 0 20 20" id="sforward" xmlns="http://www.w3.org/2000/svg"><path d="M2 15.1c0-4.2 3.3-7.7 7.5-7.8h4.3l-2.6-2.6c-.3-.3-.3-.8 0-1.1l.7-.6c.3-.3.8-.3 1.1 0l4.3 4.3.6.6c0 .2.1.3.1.5s-.1.4-.2.5l-.6.6-4.3 4.3c-.3.3-.8.3-1.1 0l-.6-.6c-.3-.3-.3-.8 0-1.1l2.6-2.6h-4C6.7 9.5 4.3 12 4.3 15v1.3c0 .4-.3.7-.7.7h-.9c-.4 0-.7-.3-.7-.7v-1.2z" fill-rule="evenodd" clip-rule="evenodd"/></svg><svg viewBox="0 0 20 20" id="smiley" xmlns="http://www.w3.org/2000/svg"><path d="M10 1c-5 0-9 4-9 9s4 9 9 9 9-4 9-9-4-9-9-9zm0 16.3c-4 0-7.3-3.3-7.3-7.3S6 2.7 10 2.7s7.3 3.2 7.3 7.3c0 4-3.3 7.3-7.3 7.3z"/><path d="M13.6 13.9c.1-.1 0-.1 0 0zM14 11.6c-.2-.2-.5-.1-.7.1l-.1.1c-.2.2-1.4 1.3-3.2 1.3-2.2 0-3-1-3.2-1.3l-.1-.1c-.2-.2-.5-.3-.7-.1l-.5.3c-.2.2-.3.5-.1.7v.1c.5.7 1.3 1.3 2.3 1.7.6.3 1.5.4 2.3.4.7 0 1.2-.1 1.8-.3 1-.3 2.3-1 2.8-1.7v-.1c.2-.2.1-.5-.1-.7l-.5-.4zM6.3 13.8c.1 0 .1 0 0 0z"/><circle cx="7.6" cy="8.3" r="1.4"/><circle cx="12.4" cy="8.3" r="1.4"/></svg><svg viewBox="0 0 20 20" id="spam" xmlns="http://www.w3.org/2000/svg"><path d="M10 0C4.5 0 0 4.5 0 10s4.5 10 10 10 10-4.5 10-10S15.5 0 10 0zM2.4 10c0-1.7.5-3.2 1.4-4.4l10.7 10.7c-1.3.9-2.8 1.4-4.4 1.4-4.3 0-7.7-3.4-7.7-7.7zm13.9 4.5L5.6 3.8c1.3-.9 2.8-1.4 4.4-1.4 4.2 0 7.7 3.4 7.7 7.7 0 1.6-.5 3.1-1.4 4.4z"/></svg><svg viewBox="0 0 20 20" id="star-selected" xmlns="http://www.w3.org/2000/svg"><path d="M15.5 20c-.2 0-.4 0-.5-.1l-5-2.6-5 2.6c-.4.2-.8.2-1.2-.1-.3-.2-.5-.7-.4-1.1l.9-5.5-4-3.9C0 9.1-.1 8.6.1 8.2c.1-.4.4-.7.9-.8l5.5-.8L9 .6c.1-.3.6-.6 1-.6s.9.3 1 .7l2.5 6 5.5.7c.4.1.8.4.9.8.1.4 0 .8-.3 1.1l-4 3.9.9 5.5c.1.4-.1.8-.4 1.1-.1.1-.4.2-.6.2z"/></svg><svg viewBox="0 0 20 20" id="star-unselected" xmlns="http://www.w3.org/2000/svg"><path d="M15.5 20c-.2 0-.4 0-.5-.1l-5-2.6-5 2.6c-.4.2-.8.2-1.2-.1-.3-.2-.5-.7-.4-1.1l.9-5.5-4-3.9C0 9.1-.1 8.6.1 8.2c.1-.4.4-.7.9-.8l5.5-.8L9 .6c.1-.3.6-.6 1-.6s.9.3 1 .7l2.5 6 5.5.7c.4.1.8.4.9.8.1.4 0 .8-.3 1.1l-4 3.9.9 5.5c.1.4-.1.8-.4 1.1-.1.1-.4.2-.6.2zM10 15.4c.2 0 .4 0 .6.1l3.9 2-.7-4.3c-.1-.4.1-.8.4-1.1l3.1-3-4.3-.6c-.4-.1-.8-.3-1-.7l-2-4.5-1.9 4.5c-.2.4-.5.7-1 .7l-4.3.7 3.1 3c.3.3.4.7.4 1.1l-.7 4.3 3.9-2c.1-.1.3-.2.5-.2z"/></svg><svg viewBox="0 0 20 20" id="status-read" xmlns="http://www.w3.org/2000/svg"><path d="M10 3.8c-3.5 0-6.3 2.8-6.3 6.3s2.8 6.3 6.3 6.3 6.3-2.8 6.3-6.3-2.8-6.3-6.3-6.3zm0 10.6c-2.4 0-4.4-2-4.4-4.4s2-4.4 4.4-4.4 4.4 2 4.4 4.4-2 4.4-4.4 4.4z"/></svg><svg viewBox="0 0 20 20" id="status-unread" xmlns="http://www.w3.org/2000/svg"><path d="M10 3.8c-3.5 0-6.3 2.8-6.3 6.3s2.8 6.3 6.3 6.3 6.3-2.8 6.3-6.3-2.8-6.3-6.3-6.3z"/></svg><svg viewBox="0 0 20 20" id="success" xmlns="http://www.w3.org/2000/svg"><path d="M10 .25A9.75 9.75 0 1019.75 10 9.75 9.75 0 0010 .25zM8.14 15l-4.6-4.6 1.78-1.73 2.82 2.83L14.68 5l1.77 1.77z"/></svg><svg viewBox="0 0 20 20" id="unknown" xmlns="http://www.w3.org/2000/svg"><path d="M7.7 12.3c0-4.5 3.7-4.8 3.7-7.4 0-1.1-.7-1.8-2.1-1.8-2.4 0-3.7.9-3.7.9L5 1.2S6.7 0 9.5 0C13.1 0 15 1.7 15 4.5c0 4.2-3.8 3.9-3.8 7.8v1.1H7.7v-1.1zM7.3 18c0-1.3.9-2.1 2.2-2.1 1.2 0 2.1.8 2.1 2S10.7 20 9.5 20c-1.5 0-2.2-.9-2.2-2z"/></svg><svg viewBox="0 0 20 20" id="warning" xmlns="http://www.w3.org/2000/svg"><path d="M19.6 9L11 .4a1.37 1.37 0 00-2 0L.4 9a1.37 1.37 0 000 2L9 19.6a1.37 1.37 0 001.93 0L19.6 11a1.37 1.37 0 000-2zM8.81 5h2.41L11 12H9zM11 16H9v-2h2z"/></svg></defs></svg>